<?xml version="1.0" encoding="iso-8859-1"?>
<!-- Uploaded to: SVG Repo, www.svgrepo.com, Generator: SVG Repo Mixer Tools -->
<svg height="800px" width="800px" version="1.1" id="Layer_1" xmlns="http://www.w3.org/2000/svg" xmlns:xlink="http://www.w3.org/1999/xlink" 
	 viewBox="0 0 503.322 503.322" xml:space="preserve">
<g>
	<path style="fill:#E6E7E8;" d="M0,13.018V429.56h387.515l-6.578-6.578c-8.001-7.984-8.001-20.931,0-28.915
		c7.992-7.984,20.949-7.984,28.95,0l35.536,35.493h57.899V13.018H0z"/>
	<g>
		<path style="fill:#B0B6BB;" d="M34.712,386.17c-4.799,0-8.678-3.879-8.678-8.678V56.407c0-4.799,3.879-8.678,8.678-8.678
			s8.678,3.879,8.678,8.678v321.085C43.39,382.291,39.511,386.17,34.712,386.17"/>
		<path style="fill:#B0B6BB;" d="M468.61,386.17c-4.799,0-8.678-3.879-8.678-8.678V56.407c0-4.799,3.879-8.678,8.678-8.678
			s8.678,3.879,8.678,8.678v321.085C477.288,382.291,473.409,386.17,468.61,386.17"/>
		<path style="fill:#B0B6BB;" d="M69.424,316.746c-4.799,0-8.678-3.879-8.678-8.678V56.407c0-4.799,3.879-8.678,8.678-8.678
			c4.799,0,8.678,3.879,8.678,8.678v251.661C78.102,312.867,74.223,316.746,69.424,316.746"/>
		<path style="fill:#B0B6BB;" d="M95.458,316.746c-4.799,0-8.678-3.879-8.678-8.678V56.407c0-4.799,3.879-8.678,8.678-8.678
			c4.799,0,8.678,3.879,8.678,8.678v251.661C104.136,312.867,100.257,316.746,95.458,316.746"/>
		<path style="fill:#B0B6BB;" d="M138.847,316.746c-4.799,0-8.678-3.879-8.678-8.678V56.407c0-4.799,3.879-8.678,8.678-8.678
			s8.678,3.879,8.678,8.678v251.661C147.525,312.867,143.646,316.746,138.847,316.746"/>
		<path style="fill:#B0B6BB;" d="M164.881,299.39c-4.799,0-8.678-3.879-8.678-8.678V56.407c0-4.799,3.879-8.678,8.678-8.678
			c4.799,0,8.678,3.879,8.678,8.678v234.305C173.559,295.511,169.68,299.39,164.881,299.39"/>
		<path style="fill:#B0B6BB;" d="M190.915,227.306c-4.799,0-8.678-3.879-8.678-8.678V56.411c0-4.799,3.879-8.678,8.678-8.678
			c4.799,0,8.678,3.879,8.678,8.678v162.217C199.593,223.427,195.714,227.306,190.915,227.306"/>
		<path style="fill:#B0B6BB;" d="M242.983,192.026c-4.799,0-8.678-3.879-8.678-8.678V56.407c0-4.799,3.879-8.678,8.678-8.678
			c4.799,0,8.678,3.879,8.678,8.678v126.941C251.661,188.147,247.782,192.026,242.983,192.026"/>
		<path style="fill:#B0B6BB;" d="M286.373,186.908c-4.799,0-8.678-3.879-8.678-8.678V56.408c0-4.799,3.879-8.678,8.678-8.678
			c4.799,0,8.678,3.879,8.678,8.678V178.23C295.051,183.029,291.172,186.908,286.373,186.908"/>
		<path style="fill:#B0B6BB;" d="M312.407,192.026c-4.799,0-8.678-3.879-8.678-8.678V56.407c0-4.799,3.879-8.678,8.678-8.678
			c4.799,0,8.678,3.879,8.678,8.678v126.941C321.085,188.147,317.206,192.026,312.407,192.026"/>
		<path style="fill:#B0B6BB;" d="M355.797,217.983c-4.799,0-8.678-3.879-8.678-8.678V56.408c0-4.799,3.879-8.678,8.678-8.678
			c4.799,0,8.678,3.879,8.678,8.678v152.897C364.475,214.104,360.596,217.983,355.797,217.983"/>
		<path style="fill:#B0B6BB;" d="M381.831,255.924c-4.799,0-8.678-3.879-8.678-8.678V56.409c0-4.799,3.879-8.678,8.678-8.678
			s8.678,3.879,8.678,8.678v190.837C390.508,252.045,386.629,255.924,381.831,255.924"/>
		<path style="fill:#B0B6BB;" d="M433.898,316.746c-4.799,0-8.678-3.879-8.678-8.678V56.407c0-4.799,3.879-8.678,8.678-8.678
			s8.678,3.879,8.678,8.678v251.661C442.576,312.867,438.697,316.746,433.898,316.746"/>
		<path style="fill:#B0B6BB;" d="M69.424,368.814c-4.799,0-8.678-3.879-8.678-8.678v-8.678c0-4.799,3.879-8.678,8.678-8.678
			c4.799,0,8.678,3.879,8.678,8.678v8.678C78.102,364.935,74.223,368.814,69.424,368.814"/>
		<path style="fill:#B0B6BB;" d="M95.458,368.814c-4.799,0-8.678-3.879-8.678-8.678v-8.678c0-4.799,3.879-8.678,8.678-8.678
			c4.799,0,8.678,3.879,8.678,8.678v8.678C104.136,364.935,100.257,368.814,95.458,368.814"/>
		<path style="fill:#B0B6BB;" d="M121.492,368.814c-4.799,0-8.678-3.879-8.678-8.678v-8.678c0-4.799,3.879-8.678,8.678-8.678
			c4.799,0,8.678,3.879,8.678,8.678v8.678C130.169,364.935,126.29,368.814,121.492,368.814"/>
		<path style="fill:#B0B6BB;" d="M147.525,368.814c-4.799,0-8.678-3.879-8.678-8.678v-8.678c0-4.799,3.879-8.678,8.678-8.678
			c4.799,0,8.678,3.879,8.678,8.678v8.678C156.203,364.935,152.324,368.814,147.525,368.814"/>
		<path style="fill:#B0B6BB;" d="M407.864,368.814c-4.799,0-8.678-3.879-8.678-8.678v-8.678c0-4.799,3.879-8.678,8.678-8.678
			s8.678,3.879,8.678,8.678v8.678C416.542,364.935,412.663,368.814,407.864,368.814"/>
		<path style="fill:#B0B6BB;" d="M433.898,368.814c-4.799,0-8.678-3.879-8.678-8.678v-8.678c0-4.799,3.879-8.678,8.678-8.678
			s8.678,3.879,8.678,8.678v8.678C442.576,364.935,438.697,368.814,433.898,368.814"/>
	</g>
	<path style="fill:#FFD479;" d="M463.036,486.471l10.414-10.396c5.12-5.12,5.12-13.407,0-18.519l-63.566-63.488
		c-7.992-7.984-20.957-7.984-28.95,0l0,0c-7.992,7.984-7.992,20.931,0,28.915l63.566,63.488
		C449.62,491.582,457.916,491.582,463.036,486.471"/>
	<polygon style="fill:#8697CB;" points="374.873,400.136 351.33,376.628 363.601,364.34 387.144,387.848 	"/>
	<polygon style="fill:#E2B769;" points="428.441,470.416 416.17,458.128 445.12,429.213 457.39,441.501 	"/>
	<path style="fill:#6D7CA0;" d="M390.508,290.713c0-62.308-50.506-112.814-112.814-112.814s-112.814,50.506-112.814,112.814
		s50.506,112.814,112.814,112.814S390.508,353.02,390.508,290.713"/>
	<path style="fill:#8697CB;" d="M199.593,299.39c-4.799,0-8.678-3.879-8.678-8.678c0-47.85,38.929-86.78,86.78-86.78
		c4.799,0,8.678,3.879,8.678,8.678s-3.879,8.678-8.678,8.678c-38.279,0-69.424,31.145-69.424,69.424
		C208.271,295.511,204.392,299.39,199.593,299.39"/>
</g>
</svg>