<?xml version="1.0" encoding="iso-8859-1"?>
<!-- Uploaded to: SVG Repo, www.svgrepo.com, Generator: SVG Repo Mixer Tools -->
<svg height="800px" width="800px" version="1.1" id="Layer_1" xmlns="http://www.w3.org/2000/svg" xmlns:xlink="http://www.w3.org/1999/xlink" 
	 viewBox="0 0 511.998 511.998" xml:space="preserve">
<g>
	<path style="fill:#898890;" d="M21.735,435.886c12.004,0,21.735-9.732,21.735-21.735V37.462c0-12.004-9.732-21.735-21.735-21.735
		S0,25.458,0,37.462v376.689C0,426.155,9.732,435.886,21.735,435.886z"/>
	<path style="fill:#898890;" d="M108.677,305.493c12.004,0,21.735-9.732,21.735-21.735V37.462c0-12.004-9.732-21.735-21.735-21.735
		s-21.735,9.732-21.735,21.735v246.296C86.941,295.761,96.673,305.493,108.677,305.493z"/>
	<path style="fill:#898890;" d="M278.763,305.141c6.509-11.828,15.197-22.296,25.532-30.844V37.462
		c0-12.004-9.732-21.735-21.735-21.735c-12.004,0-21.735,9.732-21.735,21.735v246.296
		C260.824,294.465,268.573,303.343,278.763,305.141z"/>
	<path style="fill:#898890;" d="M391.236,251.729V37.462c0-12.004-9.732-21.735-21.735-21.735c-12.004,0-21.735,9.732-21.735,21.735
		V252.74c7.767-1.814,15.848-2.804,24.158-2.804C378.521,249.938,384.969,250.572,391.236,251.729z"/>
	<path style="fill:#898890;" d="M478.177,355.863V37.462c0-12.004-9.732-21.735-21.735-21.735c-12.004,0-21.735,9.732-21.735,21.735
		v233.076C460.963,289.834,478.068,320.88,478.177,355.863z"/>
</g>
<path style="fill:#ACABB1;" d="M108.677,435.886c12.004,0,21.735-9.732,21.735-21.735v-43.452c0-12.004-9.732-21.735-21.735-21.735
	s-21.735,9.732-21.735,21.735v43.452C86.941,426.155,96.673,435.886,108.677,435.886z"/>
<path style="fill:#898890;" d="M195.618,305.493c12.004,0,21.735-9.732,21.735-21.735V37.462c0-12.004-9.732-21.735-21.735-21.735
	c-12.004,0-21.735,9.732-21.735,21.735v246.296C173.883,295.761,183.614,305.493,195.618,305.493z"/>
<path style="fill:#ACABB1;" d="M195.618,435.886c12.004,0,21.735-9.732,21.735-21.735v-43.452c0-12.004-9.732-21.735-21.735-21.735
	c-12.004,0-21.735,9.732-21.735,21.735v43.452C173.883,426.155,183.614,435.886,195.618,435.886z"/>
<path style="fill:#BDFDFF;" d="M371.923,418.991c34.585,0,62.728-28.108,62.789-62.68c0-0.038,0.003-0.074,0.003-0.112
	c0-0.112-0.007-0.222-0.009-0.335c-0.183-34.468-28.272-62.456-62.783-62.456c-34.624,0-62.792,28.168-62.792,62.789
	C309.131,390.822,337.299,418.991,371.923,418.991z"/>
<path style="fill:#57A4FF;" d="M278.763,305.141c-8.343,15.163-13.102,32.562-13.102,51.056
	c0,58.594,47.668,106.264,106.262,106.264c21.451,0,41.423-6.409,58.143-17.385l44.828,44.83c4.244,4.244,9.807,6.366,15.368,6.366
	s11.126-2.121,15.368-6.367c8.488-8.488,8.488-22.25,0-30.738l-44.83-44.83c10.972-16.719,17.381-36.689,17.381-58.139
	c0-0.113-0.009-0.222-0.009-0.335c-0.109-34.984-17.214-66.029-43.471-85.326c-12.656-9.301-27.439-15.852-43.471-18.81
	c-6.267-1.156-12.715-1.791-19.313-1.791c-8.31,0-16.391,0.99-24.158,2.804c-16.22,3.788-31.037,11.272-43.471,21.556
	C293.96,282.845,285.272,293.313,278.763,305.141z M371.923,293.408c34.511,0,62.601,27.986,62.783,62.456
	c0.001,0.113,0.009,0.223,0.009,0.335c0,0.038-0.003,0.074-0.003,0.112c-0.061,34.572-28.204,62.68-62.789,62.68
	c-34.624,0-62.792-28.169-62.792-62.793C309.131,321.576,337.299,293.408,371.923,293.408z"/>
</svg>