<?xml version="1.0" encoding="iso-8859-1"?>
<!-- Uploaded to: SVG Repo, www.svgrepo.com, Generator: SVG Repo Mixer Tools -->
<svg version="1.1" id="Layer_1" xmlns="http://www.w3.org/2000/svg" xmlns:xlink="http://www.w3.org/1999/xlink" 
	 viewBox="0 0 502.001 502.001" xml:space="preserve">
<g>
	<g>
		<rect x="15.769" y="10" style="fill:#FFF9E6;" width="44.137" height="343.068"/>
		<path d="M59.906,363.068H15.769c-5.523,0-10-4.477-10-10V10c0-5.523,4.477-10,10-10h44.137c5.523,0,10,4.477,10,10v343.068
			C69.906,358.591,65.429,363.068,59.906,363.068z M25.769,343.068h24.137V20H25.769V343.068z"/>
	</g>
	<g>
		<rect x="164.231" y="10" style="fill:#FFF9E6;" width="44.137" height="343.068"/>
		<path d="M208.368,363.068h-44.137c-5.523,0-10-4.477-10-10V10c0-5.523,4.477-10,10-10h44.137c5.523,0,10,4.477,10,10v343.068
			C218.368,358.591,213.891,363.068,208.368,363.068z M174.231,343.068h24.137V20h-24.137V343.068z"/>
	</g>
	<g>
		<g>
			<path style="fill:#FFF9E6;" d="M407.99,10h-44.137v217.398c16.827,5.156,31.906,14.306,44.137,26.343V10z"/>
			<path d="M407.992,263.741c-2.575,0-5.108-0.995-7.016-2.873c-11.233-11.054-25.083-19.322-40.054-23.91
				c-4.201-1.288-7.07-5.167-7.07-9.561V10c0-5.523,4.477-10,10-10h44.138c5.523,0,10,4.477,10,10v243.74
				c0,4.03-2.419,7.666-6.136,9.223C410.606,263.486,409.294,263.741,407.992,263.741z M373.852,220.255
				c8.481,3.21,16.594,7.409,24.138,12.479V20h-24.138V220.255z"/>
		</g>
		<g>
			<path style="fill:#FFF9E6;" d="M326.737,222.795V10h-82.256v257.397C263.16,241.648,292.904,224.45,326.737,222.795z"/>
			<path d="M244.479,277.397c-1.029,0-2.069-0.159-3.085-0.489c-4.122-1.338-6.913-5.178-6.913-9.512V10c0-5.523,4.477-10,10-10
				h82.256c5.523,0,10,4.477,10,10v212.795c0,5.333-4.185,9.728-9.511,9.988c-29.835,1.459-57.044,16.215-74.651,40.485
				C250.658,275.912,247.622,277.397,244.479,277.397z M254.481,20v221.693c17.45-15.248,39.003-25.029,62.256-28.039V20H254.481z"
				/>
		</g>
	</g>
	<g>
		<rect x="95.016" y="10" style="fill:#FFF9E6;" width="33.103" height="343.068"/>
		<path d="M128.119,363.068H95.016c-5.523,0-10-4.477-10-10V10c0-5.523,4.477-10,10-10h33.103c5.523,0,10,4.477,10,10v343.068
			C138.119,358.591,133.642,363.068,128.119,363.068z M105.016,343.068h13.103V20h-13.103V343.068z"/>
	</g>
	<g>
		<rect x="446.108" y="10" style="fill:#FFF9E6;" width="33.103" height="343.068"/>
		<path d="M479.211,363.068h-33.103c-5.523,0-10-4.477-10-10V10c0-5.523,4.477-10,10-10h33.103c5.523,0,10,4.477,10,10v343.068
			C489.211,358.591,484.734,363.068,479.211,363.068z M456.108,343.068h13.103V20h-13.103V343.068z"/>
	</g>
	<g>
		<circle style="fill:#5CC9C1;" cx="332.111" cy="337.878" r="76.094"/>
		<path d="M493.304,484.929l-93.699-93.699c11.629-14.681,18.599-33.212,18.599-53.352c0-47.472-38.622-86.094-86.094-86.094
			s-86.094,38.622-86.094,86.094c0,47.473,38.622,86.094,86.094,86.094c20.14,0,38.672-6.97,53.352-18.599l93.699,93.699
			c1.953,1.953,4.512,2.929,7.071,2.929s5.119-0.976,7.071-2.929C497.209,495.166,497.209,488.834,493.304,484.929z
			 M266.017,337.877c0-36.444,29.649-66.094,66.094-66.094s66.094,29.649,66.094,66.094s-29.65,66.094-66.094,66.094
			S266.017,374.322,266.017,337.877z"/>
	</g>
	<g>
		<path d="M332.11,391.872c-8.361,0-16.382-1.863-23.84-5.537c-4.954-2.44-6.992-8.436-4.551-13.39
			c2.441-4.955,8.436-6.991,13.39-4.551c4.684,2.308,9.731,3.478,15.001,3.478c5.523,0,10,4.477,10,10
			S337.633,391.872,332.11,391.872z"/>
	</g>
	<g>
		<path d="M292.524,367.081c-3.709,0-7.272-2.072-9.002-5.632c-3.586-7.382-5.405-15.313-5.405-23.571
			c0-29.772,24.222-53.994,53.994-53.994c5.523,0,10,4.477,10,10s-4.477,10-10,10c-18.744,0-33.994,15.25-33.994,33.994
			c0,5.205,1.142,10.195,3.395,14.831c2.414,4.968,0.343,10.951-4.625,13.365C295.48,366.756,293.99,367.081,292.524,367.081z"/>
	</g>
	<g>
		<path d="M274.574,128.337c-5.523,0-10-4.477-10-10v-77.24c0-5.523,4.477-10,10-10s10,4.477,10,10v77.24
			C284.574,123.86,280.097,128.337,274.574,128.337z"/>
	</g>
	<g>
		<path d="M274.574,170.468c-5.523,0-10-4.477-10-10v-11.034c0-5.523,4.477-10,10-10s10,4.477,10,10v11.034
			C284.574,165.991,280.097,170.468,274.574,170.468z"/>
	</g>
</g>
</svg>