<?xml version="1.0" ?>
<!-- Uploaded to: SVG Repo, www.svgrepo.com, Generator: SVG Repo Mixer Tools -->
<svg width="800px" height="800px" viewBox="0 0 24 24" version="1.1" xml:space="preserve" xmlns="http://www.w3.org/2000/svg" xmlns:xlink="http://www.w3.org/1999/xlink">
<style type="text/css">
	.st0{opacity:0.2;fill:none;stroke:#000000;stroke-width:5.000000e-02;stroke-miterlimit:10;}
</style>
<g id="Layer_Grid"/>
<g id="Layer_2">
<path d="M18.8,15.2c0.3-0.5,0.3-1.1,0-1.6L16,9.2c-0.4-0.6-1-1-1.8-1c-0.7,0-1.3,0.3-1.7,0.8l-0.4-0.6c-0.4-0.7-1.1-1-1.9-1   s-1.5,0.4-1.9,1l-3.1,5c-0.3,0.5-0.3,1.1-0.1,1.7C5.5,15.7,6,16,6.6,16h4.4h6.4C18,16,18.5,15.7,18.8,15.2z M9.7,13.6   c-0.1,0.1-0.1,0.3-0.2,0.4c0,0,0,0,0,0H7.3l2.8-4.4c0.1-0.2,0.3-0.2,0.4,0l0.9,1.4L9.7,13.6z M11.9,14l1.5-2.4l0.8-1.3l-0.8-0.5   l1,0.5l2.3,3.7H11.9z"/>
<path d="M3,8c0,0.6,0.4,1,1,1s1-0.4,1-1V7c0-1.1,0.9-2,2-2h1c0.6,0,1-0.4,1-1S8.6,3,8,3H7C4.8,3,3,4.8,3,7V8z"/>
<path d="M21,7c0-2.2-1.8-4-4-4h-1c-0.6,0-1,0.4-1,1s0.4,1,1,1h1c1.1,0,2,0.9,2,2v1c0,0.6,0.4,1,1,1s1-0.4,1-1V7z"/>
<path d="M3,17c0,2.2,1.8,4,4,4h1c0.6,0,1-0.4,1-1s-0.4-1-1-1H7c-1.1,0-2-0.9-2-2v-1c0-0.6-0.4-1-1-1s-1,0.4-1,1V17z"/>
<path d="M16,21h1c2.2,0,4-1.8,4-4v-1c0-0.6-0.4-1-1-1s-1,0.4-1,1v1c0,1.1-0.9,2-2,2h-1c-0.6,0-1,0.4-1,1S15.4,21,16,21z"/>
</g>
</svg>