<svg width="1002.530029296875px" height="134.24000549316406px" xmlns="http://www.w3.org/2000/svg" viewBox="-251.2650146484375 7.879997253417969 1002.530029296875 134.24000549316406" style="background: none;" preserveAspectRatio="xMidYMid"><defs><filter id="editing-extrude-glow"><feFlood flood-color="#0b1d27" result="flood-1"></feFlood><feMorphology operator="erode" radius="1" in="SourceAlpha" result="erode"></feMorphology><feComposite operator="in" in="flood-1" in2="erode" result="comp1"></feComposite><feConvolveMatrix order="0,0" divisor="1" in="comp1" result="convolve" kernelMatrix=""></feConvolveMatrix><feOffset dx="0" dy="0" in="convolve" result="extrude"></feOffset><feComposite operator="in" in="flood-1" in2="extrude" result="comp-extrude"></feComposite><feFlood flood-color="#1d6f9d" result="flood-2"></feFlood><feComposite operator="in" in="flood-2" in2="SourceAlpha" result="comp2"></feComposite><feMorphology operator="dilate" radius="1" in="comp2" result="dilate"></feMorphology><feOffset dx="0" dy="0" in="dilate" result="offset"></feOffset><feGaussianBlur in="offset" stdDeviation="5.8" result="blur"></feGaussianBlur><feComponentTransfer in="blur" result="shadow"><feFuncA type="linear" slope="0.8" intercept="-0.2"></feFuncA></feComponentTransfer><feMerge><feMergeNode in="shadow"></feMergeNode><feMergeNode in="comp-extrude"></feMergeNode><feMergeNode in="SourceGraphic"></feMergeNode></feMerge></filter></defs><g filter="url(#editing-extrude-glow)"><g transform="translate(-110.12996739149094, 98.26500129699707)"><path d="M16.13-8.77L16.13-36.35L16.13-36.35Q16.13-38.08 15.55-41.54L15.55-41.54L11.52-41.54L11.52-41.54Q9.86-41.54 6.34-41.22L6.34-41.22L6.34-41.22Q5.12-39.68 4.90-38.62L4.90-38.62L4.90-38.62Q4.67-37.57 4.35-35.07L4.35-35.07L0.64-35.39L1.09-44.61L2.30-45.76L2.30-45.76Q8.32-45.12 9.60-45.12L9.60-45.12L28.48-45.12L35.78-45.76L36.99-44.61L37.44-35.39L33.73-35.07L33.73-35.07Q33.41-37.57 33.18-38.62L33.18-38.62L33.18-38.62Q32.96-39.68 31.74-41.22L31.74-41.22L31.74-41.22Q28.22-41.54 26.56-41.54L26.56-41.54L22.40-41.54L22.40-41.54Q21.95-37.06 21.95-34.43L21.95-34.43L21.95-10.69L21.95-10.69Q21.95-7.04 22.40-3.90L22.40-3.90L28.16-3.46L27.71 0.32L27.71 0.32Q23.49 0 18.37 0L18.37 0L10.82 0.32L10.50-2.88L15.55-3.90L15.55-3.90Q16.13-7.68 16.13-8.77L16.13-8.77ZM46.14-33.86L46.14-33.86L55.68-34.30L55.68-34.30Q60.93-34.30 63.94-31.71L63.94-31.71L63.94-31.71Q66.94-29.12 66.94-24.32L66.94-24.32L66.94-24.32Q66.94-21.06 65.09-18.69L65.09-18.69L65.09-18.69Q63.23-16.32 60.10-15.04L60.10-15.04L60.10-15.04Q63.49-8.58 67.58-3.20L67.58-3.20L70.78-2.88L70.46 0.26L70.46 0.26Q66.56 0 62.02 0L62.02 0L62.02 0Q60.03-4.42 59.39-5.57L59.39-5.57L54.78-14.02L54.27-14.02L54.27-14.02Q53.12-14.02 50.56-14.14L50.56-14.14L50.56-8.51L50.56-8.51Q50.56-7.42 50.94-3.20L50.94-3.20L55.04-2.88L54.72 0.26L54.72 0.26Q51.20 0 46.66 0L46.66 0L41.02 0.26L40.83-2.56L44.54-3.20L44.99-7.04L44.99-26.24L44.54-30.53L40.90-31.10L41.15-34.11L41.15-34.11Q44.22-33.92 46.14-33.86ZM53.31-31.36L53.31-31.36L53.31-31.36Q52.48-31.36 50.94-31.17L50.94-31.17L50.94-31.17Q50.56-28.48 50.56-25.92L50.56-25.92L50.56-17.09L50.56-17.09Q51.58-17.02 53.25-17.02L53.25-17.02L53.25-17.02Q57.02-17.02 59.07-18.85L59.07-18.85L59.07-18.85Q61.12-20.67 61.12-24.22L61.12-24.22L61.12-24.22Q61.12-27.78 59.10-29.57L59.10-29.57L59.10-29.57Q57.09-31.36 53.31-31.36ZM102.34-3.26L105.34-2.82L105.09 0.06L105.09 0.06Q101.95 0 100.29 0L100.29 0L92.16 0.26L91.97-2.56L95.36-3.33L94.40-7.49L93.44-10.18L83.01-10.18L81.66-5.89L81.22-3.33L84.48-2.82L84.22 0.06L84.22 0.06Q81.41 0 79.62 0L79.62 0L72.83 0.26L72.64-2.56L75.46-3.20L77.57-7.68L86.72-33.86L90.50-34.37L100.67-6.78L102.34-3.26ZM92.35-13.31L88.19-25.66L84.03-13.12L92.35-13.31ZM118.85-25.92L118.85-25.92L118.85-8.51L118.85-8.51Q118.85-5.31 119.23-3.20L119.23-3.20L123.26-2.88L122.94 0.26L122.94 0.26Q119.42 0 114.88 0L114.88 0L109.31 0.26L109.06-2.56L112.77-3.20L112.77-3.20Q113.22-5.25 113.22-7.04L113.22-7.04L113.22-26.24L113.22-26.24Q113.22-28.03 112.77-30.53L112.77-30.53L109.12-31.10L109.38-34.11L109.38-34.11Q113.47-33.86 114.94-33.86L114.94-33.86L122.69-34.11L122.88-30.85L119.23-30.53L119.23-30.53Q118.85-28.42 118.85-25.92ZM128.70-2.56L132.42-3.20L132.86-7.04L132.86-26.24L132.86-26.24Q132.86-27.39 132.64-28.86L132.64-28.86L132.64-28.86Q132.42-30.34 132.42-30.53L132.42-30.53L128.77-31.10L129.02-34.11L129.02-34.11Q133.12-33.86 134.53-33.86L134.53-33.86L142.34-34.11L142.53-30.85L138.82-30.53L138.82-30.53Q138.43-28.42 138.43-25.92L138.43-25.92L138.43-8.51L138.43-8.51Q138.43-5.76 138.82-3.26L138.82-3.26L144.32-3.26L144.32-3.26Q146.11-3.26 148.48-3.71L148.48-3.71L148.48-3.71Q149.70-5.50 150.21-8.64L150.21-8.64L153.22-8.38L152.45-0.70L151.49 0.19L151.49 0.19Q146.82 0 145.79 0L145.79 0L134.53 0L128.90 0.26L128.70-2.56ZM162.56-33.86L162.56-33.86L171.78-34.30L171.78-34.30Q176.06-34.30 178.94-32.10L178.94-32.10L178.94-32.10Q181.82-29.89 181.82-26.43L181.82-26.43L181.82-26.43Q181.82-22.98 179.90-20.77L179.90-20.77L179.90-20.77Q177.98-18.56 174.91-17.79L174.91-17.79L174.91-17.47L174.91-17.47Q178.75-16.90 181.06-14.69L181.06-14.69L181.06-14.69Q183.36-12.48 183.36-8.58L183.36-8.58L183.36-8.58Q183.36-4.67 180.29-2.21L180.29-2.21L180.29-2.21Q177.22 0.26 172.61 0.26L172.61 0.26L162.56 0L157.57 0.26L157.31-2.56L160.77-3.20L160.77-3.20Q161.22-5.44 161.22-7.04L161.22-7.04L161.22-26.24L161.22-26.24Q161.22-27.65 160.77-30.53L160.77-30.53L157.44-31.10L157.63-34.11L157.63-34.11Q160.90-33.86 162.56-33.86ZM166.78-25.92L166.78-25.92L166.78-8.51L166.78-8.51Q166.78-5.76 167.04-3.20L167.04-3.20L167.04-3.20Q168.77-3.01 171.36-3.01L171.36-3.01L171.36-3.01Q173.95-3.01 175.71-4.67L175.71-4.67L175.71-4.67Q177.47-6.34 177.47-9.50L177.47-9.50L177.47-9.50Q177.47-12.67 175.23-14.27L175.23-14.27L175.23-14.27Q172.99-15.87 169.54-15.87L169.54-15.87L169.02-15.87L169.34-19.14L169.66-19.14L169.66-19.14Q172.61-19.14 174.46-20.80L174.46-20.80L174.46-20.80Q176.32-22.46 176.32-25.25L176.32-25.25L176.32-25.25Q176.32-28.03 174.75-29.63L174.75-29.63L174.75-29.63Q173.18-31.23 170.69-31.23L170.69-31.23L170.69-31.23Q169.28-31.23 167.10-30.98L167.10-30.98L167.10-30.98Q166.78-29.50 166.78-25.92ZM188.61-2.56L192.32-3.20L192.77-7.04L192.77-26.24L192.77-26.24Q192.77-27.39 192.54-28.86L192.54-28.86L192.54-28.86Q192.32-30.34 192.32-30.53L192.32-30.53L188.67-31.10L188.93-34.11L188.93-34.11Q193.02-33.86 194.43-33.86L194.43-33.86L202.24-34.11L202.43-30.85L198.72-30.53L198.72-30.53Q198.34-28.42 198.34-25.92L198.34-25.92L198.34-8.51L198.34-8.51Q198.34-5.76 198.72-3.26L198.72-3.26L204.22-3.26L204.22-3.26Q206.02-3.26 208.38-3.71L208.38-3.71L208.38-3.71Q209.60-5.50 210.11-8.64L210.11-8.64L213.12-8.38L212.35-0.70L211.39 0.19L211.39 0.19Q206.72 0 205.70 0L205.70 0L194.43 0L188.80 0.26L188.61-2.56ZM244.86-3.26L247.87-2.82L247.62 0.06L247.62 0.06Q244.48 0 242.82 0L242.82 0L234.69 0.26L234.50-2.56L237.89-3.33L236.93-7.49L235.97-10.18L225.54-10.18L224.19-5.89L223.74-3.33L227.01-2.82L226.75 0.06L226.75 0.06Q223.94 0 222.14 0L222.14 0L215.36 0.26L215.17-2.56L217.98-3.20L220.10-7.68L229.25-33.86L233.02-34.37L243.20-6.78L244.86-3.26ZM234.88-13.31L230.72-25.66L226.56-13.12L234.88-13.31ZM268.54-30.46L259.90-30.46L259.90-30.46Q257.86-30.46 255.68-30.21L255.68-30.21L254.91-28.67L254.91-28.67Q254.40-26.75 254.27-24.83L254.27-24.83L251.14-25.02L251.46-33.47L252.42-34.30L252.42-34.30Q257.15-33.86 258.11-33.86L258.11-33.86L275.46-33.86L275.84-30.72L270.46-23.17L261.50-9.54L257.98-3.39L267.39-3.39L267.39-3.39Q269.57-3.39 271.74-3.78L271.74-3.78L271.74-3.78Q273.09-5.95 273.41-9.09L273.41-9.09L276.42-8.83L275.65-0.70L274.69 0.19L274.69 0.19Q269.95 0 268.99 0L268.99 0L251.01 0L250.56-3.14L250.56-3.14Q254.78-8.64 256.13-10.82L256.13-10.82L265.41-24.90L268.54-30.46ZM297.47-30.66L291.26-30.66L290.94-25.92L290.94-19.07L290.94-19.07Q291.71-19.01 292.80-19.01L292.80-19.01L296.19-19.01L298.94-19.39L299.39-22.53L301.95-22.34L301.95-22.34Q301.89-19.26 301.89-18.30L301.89-18.30L302.02-12.74L299.39-12.42L298.94-15.55L298.94-15.55Q296.19-15.81 295.17-15.81L295.17-15.81L292.93-15.81L292.93-15.81Q291.65-15.81 290.94-15.68L290.94-15.68L290.94-8.51L290.94-8.51Q290.94-5.63 291.26-3.26L291.26-3.26L298.11-3.26L298.11-3.26Q299.90-3.26 302.27-3.71L302.27-3.71L302.27-3.71Q303.17-4.99 303.30-5.57L303.30-5.57L303.30-5.57Q303.94-8.26 304-8.64L304-8.64L307.01-8.38L306.24-0.70L305.28 0.19L305.28 0.19Q300.61 0 299.58 0L299.58 0L287.04 0L281.41 0.26L281.22-2.56L284.93-3.20L284.93-3.20Q285.38-5.25 285.38-7.04L285.38-7.04L285.38-26.24L285.38-26.24Q285.38-27.84 284.93-30.53L284.93-30.53L281.28-31.10L281.54-34.11L281.54-34.11Q285.76-33.86 287.04-33.86L287.04-33.86L298.94-33.86L304.64-34.30L305.60-33.47L305.92-26.56L302.78-26.30L302.78-26.30Q302.66-27.97 302.27-28.99L302.27-28.99L302.27-28.99Q302.27-29.38 301.44-30.46L301.44-30.46L301.44-30.46Q298.37-30.66 297.47-30.66L297.47-30.66ZM339.90-8.77L339.90-36.35L339.90-36.35Q339.90-38.08 339.33-41.54L339.33-41.54L335.30-41.54L335.30-41.54Q333.63-41.54 330.11-41.22L330.11-41.22L330.11-41.22Q328.90-39.68 328.67-38.62L328.67-38.62L328.67-38.62Q328.45-37.57 328.13-35.07L328.13-35.07L324.42-35.39L324.86-44.61L326.08-45.76L326.08-45.76Q332.10-45.12 333.38-45.12L333.38-45.12L352.26-45.12L359.55-45.76L360.77-44.61L361.22-35.39L357.50-35.07L357.50-35.07Q357.18-37.57 356.96-38.62L356.96-38.62L356.96-38.62Q356.74-39.68 355.52-41.22L355.52-41.22L355.52-41.22Q352-41.54 350.34-41.54L350.34-41.54L346.18-41.54L346.18-41.54Q345.73-37.06 345.73-34.43L345.73-34.43L345.73-10.69L345.73-10.69Q345.73-7.04 346.18-3.90L346.18-3.90L351.94-3.46L351.49 0.32L351.49 0.32Q347.26 0 342.14 0L342.14 0L334.59 0.32L334.27-2.88L339.33-3.90L339.33-3.90Q339.90-7.68 339.90-8.77L339.90-8.77ZM380.86-30.66L374.66-30.66L374.34-25.92L374.34-19.07L374.34-19.07Q375.10-19.01 376.19-19.01L376.19-19.01L379.58-19.01L382.34-19.39L382.78-22.53L385.34-22.34L385.34-22.34Q385.28-19.26 385.28-18.30L385.28-18.30L385.41-12.74L382.78-12.42L382.34-15.55L382.34-15.55Q379.58-15.81 378.56-15.81L378.56-15.81L376.32-15.81L376.32-15.81Q375.04-15.81 374.34-15.68L374.34-15.68L374.34-8.51L374.34-8.51Q374.34-5.63 374.66-3.26L374.66-3.26L381.50-3.26L381.50-3.26Q383.30-3.26 385.66-3.71L385.66-3.71L385.66-3.71Q386.56-4.99 386.69-5.57L386.69-5.57L386.69-5.57Q387.33-8.26 387.39-8.64L387.39-8.64L390.40-8.38L389.63-0.70L388.67 0.19L388.67 0.19Q384 0 382.98 0L382.98 0L370.43 0L364.80 0.26L364.61-2.56L368.32-3.20L368.32-3.20Q368.77-5.25 368.77-7.04L368.77-7.04L368.77-26.24L368.77-26.24Q368.77-27.84 368.32-30.53L368.32-30.53L364.67-31.10L364.93-34.11L364.93-34.11Q369.15-33.86 370.43-33.86L370.43-33.86L382.34-33.86L388.03-34.30L388.99-33.47L389.31-26.56L386.18-26.30L386.18-26.30Q386.05-27.97 385.66-28.99L385.66-28.99L385.66-28.99Q385.66-29.38 384.83-30.46L384.83-30.46L384.83-30.46Q381.76-30.66 380.86-30.66L380.86-30.66ZM411.01 0.70L411.01 0.70L411.01 0.70Q403.07 0.70 398.85-4.06L398.85-4.06L398.85-4.06Q394.62-8.83 394.62-16.93L394.62-16.93L394.62-16.93Q394.62-25.02 398.85-29.79L398.85-29.79L398.85-29.79Q403.07-34.56 411.01-34.56L411.01-34.56L411.01-34.56Q414.91-34.56 421.44-32.96L421.44-32.96L420.93-25.28L417.66-25.47L417.66-27.97L417.66-27.97Q417.66-28.54 417.02-30.21L417.02-30.21L417.02-30.21Q413.57-31.10 411.01-31.10L411.01-31.10L411.01-31.10Q406.08-31.10 403.55-27.17L403.55-27.17L403.55-27.17Q401.02-23.23 401.02-16.93L401.02-16.93L401.02-16.93Q401.02-10.62 403.52-6.66L403.52-6.66L403.52-6.66Q406.02-2.69 410.94-2.69L410.94-2.69L410.94-2.69Q413.89-2.69 417.54-3.65L417.54-3.65L417.54-3.65Q418.24-5.76 418.24-6.21L418.24-6.21L418.37-8.45L421.57-8.58L421.89-0.90L421.89-0.90Q415.36 0.70 411.01 0.70ZM426.94-2.56L430.66-3.20L431.10-7.04L431.10-26.24L431.10-26.24Q431.10-27.39 430.88-28.86L430.88-28.86L430.88-28.86Q430.66-30.34 430.66-30.53L430.66-30.53L427.01-31.10L427.26-34.11L427.26-34.11Q431.36-33.86 432.77-33.86L432.77-33.86L440.58-34.11L440.77-30.85L437.06-30.53L437.06-30.53Q436.67-28.42 436.67-25.92L436.67-25.92L436.67-18.37L452.35-18.56L452.35-26.24L452.35-26.24Q452.35-27.39 452.13-28.86L452.13-28.86L452.13-28.86Q451.90-30.34 451.90-30.53L451.90-30.53L448.26-31.10L448.45-34.11L448.45-34.11Q452.54-33.86 454.02-33.86L454.02-33.86L461.76-34.11L462.02-30.85L458.30-30.53L458.30-30.53Q457.92-28.42 457.92-25.92L457.92-25.92L457.92-8.51L457.92-8.51Q457.92-5.31 458.30-3.20L458.30-3.20L462.40-2.88L462.08 0.26L462.08 0.26Q458.50 0 454.02 0L454.02 0L448.38 0.26L448.13-2.56L451.90-3.20L452.35-7.04L452.35-15.23L436.67-15.23L436.67-8.51L436.67-8.51Q436.67-7.42 437.06-3.20L437.06-3.20L441.15-2.88L440.83 0.26L440.83 0.26Q437.31 0 432.77 0L432.77 0L427.14 0.26L426.94-2.56ZM467.58-2.56L471.30-3.20L471.74-7.04L471.74-26.24L471.74-26.24Q471.74-27.39 471.52-28.90L471.52-28.90L471.52-28.90Q471.30-30.40 471.30-30.53L471.30-30.53L467.52-31.10L467.78-34.11L467.78-34.11Q471.87-33.86 473.34-33.86L473.34-33.86L476.48-33.86L477.44-32.90L477.44-32.90Q481.41-26.62 482.11-25.60L482.11-25.60L494.53-9.09L494.53-25.92L494.53-25.92Q494.53-27.58 494.08-30.46L494.08-30.46L490.37-30.85L490.62-33.98L495.04-33.86L502.98-34.11L503.23-31.04L499.52-30.46L499.52-30.46Q498.88-27.71 498.88-25.60L498.88-25.60L498.88-12.35L498.82 0.19L494.59 0.19L476.03-24.70L476.03-8.51L476.03-8.51Q476.03-7.04 476.42-3.20L476.42-3.20L480.19-2.88L479.94 0.26L479.94 0.26Q477.57 0 473.09 0L473.09 0L467.78 0.26L467.58-2.56ZM523.90-34.62L523.90-34.62L523.90-34.62Q531.90-34.62 536.32-29.82L536.32-29.82L536.32-29.82Q540.74-25.02 540.74-16.93L540.74-16.93L540.74-16.93Q540.74-8.83 536.32-4.03L536.32-4.03L536.32-4.03Q531.90 0.77 523.90 0.77L523.90 0.77L523.90 0.77Q515.90 0.77 511.49-4.03L511.49-4.03L511.49-4.03Q507.07-8.83 507.07-16.93L507.07-16.93L507.07-16.93Q507.07-25.02 511.49-29.82L511.49-29.82L511.49-29.82Q515.90-34.62 523.90-34.62ZM523.90-31.30L523.90-31.30L523.90-31.30Q518.78-31.30 516.19-27.46L516.19-27.46L516.19-27.46Q513.60-23.62 513.60-16.93L513.60-16.93L513.60-16.93Q513.60-10.24 516.22-6.40L516.22-6.40L516.22-6.40Q518.85-2.56 523.90-2.56L523.90-2.56L523.90-2.56Q528.96-2.56 531.58-6.40L531.58-6.40L531.58-6.40Q534.21-10.24 534.21-16.93L534.21-16.93L534.21-16.93Q534.21-23.62 531.62-27.46L531.62-27.46L531.62-27.46Q529.02-31.30 523.90-31.30ZM545.92-2.56L549.63-3.20L550.08-7.04L550.08-26.24L550.08-26.24Q550.08-27.39 549.86-28.86L549.86-28.86L549.86-28.86Q549.63-30.34 549.63-30.53L549.63-30.53L545.98-31.10L546.24-34.11L546.24-34.11Q550.34-33.86 551.74-33.86L551.74-33.86L559.55-34.11L559.74-30.85L556.03-30.53L556.03-30.53Q555.65-28.42 555.65-25.92L555.65-25.92L555.65-8.51L555.65-8.51Q555.65-5.76 556.03-3.26L556.03-3.26L561.54-3.26L561.54-3.26Q563.33-3.26 565.70-3.71L565.70-3.71L565.70-3.71Q566.91-5.50 567.42-8.64L567.42-8.64L570.43-8.38L569.66-0.70L568.70 0.19L568.70 0.19Q564.03 0 563.01 0L563.01 0L551.74 0L546.11 0.26L545.92-2.56ZM588.22-34.62L588.22-34.62L588.22-34.62Q596.22-34.62 600.64-29.82L600.64-29.82L600.64-29.82Q605.06-25.02 605.06-16.93L605.06-16.93L605.06-16.93Q605.06-8.83 600.64-4.03L600.64-4.03L600.64-4.03Q596.22 0.77 588.22 0.77L588.22 0.77L588.22 0.77Q580.22 0.77 575.81-4.03L575.81-4.03L575.81-4.03Q571.39-8.83 571.39-16.93L571.39-16.93L571.39-16.93Q571.39-25.02 575.81-29.82L575.81-29.82L575.81-29.82Q580.22-34.62 588.22-34.62ZM588.22-31.30L588.22-31.30L588.22-31.30Q583.10-31.30 580.51-27.46L580.51-27.46L580.51-27.46Q577.92-23.62 577.92-16.93L577.92-16.93L577.92-16.93Q577.92-10.24 580.54-6.40L580.54-6.40L580.54-6.40Q583.17-2.56 588.22-2.56L588.22-2.56L588.22-2.56Q593.28-2.56 595.90-6.40L595.90-6.40L595.90-6.40Q598.53-10.24 598.53-16.93L598.53-16.93L598.53-16.93Q598.53-23.62 595.94-27.46L595.94-27.46L595.94-27.46Q593.34-31.30 588.22-31.30ZM627.14-34.56L627.14-34.56L627.14-34.56Q631.23-34.56 638.27-32.96L638.27-32.96L637.70-25.54L634.43-25.79L634.37-27.97L634.37-27.97Q634.37-28.29 633.79-30.14L633.79-30.14L633.79-30.14Q630.14-31.10 627.01-31.10L627.01-31.10L627.01-31.10Q621.70-31.10 618.98-27.17L618.98-27.17L618.98-27.17Q616.26-23.23 616.26-16.93L616.26-16.93L616.26-16.93Q616.26-10.62 618.98-6.66L618.98-6.66L618.98-6.66Q621.70-2.69 627.01-2.69L627.01-2.69L627.01-2.69Q629.70-2.69 633.34-3.46L633.34-3.46L633.34-3.46Q633.86-5.63 633.86-6.14L633.86-6.14L633.86-9.41L633.34-12.61L628.03-12.99L628.29-16.51L633.86-16.51L638.08-16.70L639.17-15.74L639.17-15.74Q638.72-10.94 638.72-8.51L638.72-8.51L638.72-0.90L638.72-0.90Q631.68 0.70 627.14 0.70L627.14 0.70L627.14 0.70Q618.82 0.70 614.37-4.06L614.37-4.06L614.37-4.06Q609.92-8.83 609.92-16.90L609.92-16.90L609.92-16.90Q609.92-24.96 614.37-29.76L614.37-29.76L614.37-29.76Q618.82-34.56 627.14-34.56ZM655.17-25.92L655.17-25.92L655.17-8.51L655.17-8.51Q655.17-5.31 655.55-3.20L655.55-3.20L659.58-2.88L659.26 0.26L659.26 0.26Q655.74 0 651.20 0L651.20 0L645.63 0.26L645.38-2.56L649.09-3.20L649.09-3.20Q649.54-5.25 649.54-7.04L649.54-7.04L649.54-26.24L649.54-26.24Q649.54-28.03 649.09-30.53L649.09-30.53L645.44-31.10L645.70-34.11L645.70-34.11Q649.79-33.86 651.26-33.86L651.26-33.86L659.01-34.11L659.20-30.85L655.55-30.53L655.55-30.53Q655.17-28.42 655.17-25.92ZM681.28-30.66L675.07-30.66L674.75-25.92L674.75-19.07L674.75-19.07Q675.52-19.01 676.61-19.01L676.61-19.01L680-19.01L682.75-19.39L683.20-22.53L685.76-22.34L685.76-22.34Q685.70-19.26 685.70-18.30L685.70-18.30L685.82-12.74L683.20-12.42L682.75-15.55L682.75-15.55Q680-15.81 678.98-15.81L678.98-15.81L676.74-15.81L676.74-15.81Q675.46-15.81 674.75-15.68L674.75-15.68L674.75-8.51L674.75-8.51Q674.75-5.63 675.07-3.26L675.07-3.26L681.92-3.26L681.92-3.26Q683.71-3.26 686.08-3.71L686.08-3.71L686.08-3.71Q686.98-4.99 687.10-5.57L687.10-5.57L687.10-5.57Q687.74-8.26 687.81-8.64L687.81-8.64L690.82-8.38L690.05-0.70L689.09 0.19L689.09 0.19Q684.42 0 683.39 0L683.39 0L670.85 0L665.22 0.26L665.02-2.56L668.74-3.20L668.74-3.20Q669.18-5.25 669.18-7.04L669.18-7.04L669.18-26.24L669.18-26.24Q669.18-27.84 668.74-30.53L668.74-30.53L665.09-31.10L665.34-34.11L665.34-34.11Q669.57-33.86 670.85-33.86L670.85-33.86L682.75-33.86L688.45-34.30L689.41-33.47L689.73-26.56L686.59-26.30L686.59-26.30Q686.46-27.97 686.08-28.99L686.08-28.99L686.08-28.99Q686.08-29.38 685.25-30.46L685.25-30.46L685.25-30.46Q682.18-30.66 681.28-30.66L681.28-30.66ZM700.54-9.60L700.54-6.85L700.54-6.85Q700.54-6.08 701.18-4.16L701.18-4.16L701.18-4.16Q704.26-2.82 707.17-2.82L707.17-2.82L707.17-2.82Q710.08-2.82 711.74-4.19L711.74-4.19L711.74-4.19Q713.41-5.57 713.41-7.84L713.41-7.84L713.41-7.84Q713.41-10.11 711.68-11.68L711.68-11.68L711.68-11.68Q709.95-13.25 707.52-14.37L707.52-14.37L707.52-14.37Q705.09-15.49 702.66-16.77L702.66-16.77L702.66-16.77Q700.22-18.05 698.50-20.26L698.50-20.26L698.50-20.26Q696.77-22.46 696.77-25.41L696.77-25.41L696.77-25.41Q696.77-29.70 699.87-32.13L699.87-32.13L699.87-32.13Q702.98-34.56 707.49-34.56L707.49-34.56L707.49-34.56Q712-34.56 718.27-32.96L718.27-32.96L717.57-24.90L714.24-25.22L714.24-27.84L714.24-27.84Q714.24-28.10 713.60-30.14L713.60-30.14L713.60-30.14Q711.04-31.23 708.48-31.23L708.48-31.23L708.48-31.23Q705.92-31.23 704.38-29.98L704.38-29.98L704.38-29.98Q702.85-28.74 702.85-26.62L702.85-26.62L702.85-26.62Q702.85-24.51 704.58-23.01L704.58-23.01L704.58-23.01Q706.30-21.50 708.77-20.38L708.77-20.38L708.77-20.38Q711.23-19.26 713.70-17.95L713.70-17.95L713.70-17.95Q716.16-16.64 717.89-14.40L717.89-14.40L717.89-14.40Q719.62-12.16 719.62-9.15L719.62-9.15L719.62-9.15Q719.62-4.48 716.16-1.89L716.16-1.89L716.16-1.89Q712.70 0.70 707.39 0.70L707.39 0.70L707.39 0.70Q704.45 0.70 701.63 0.10L701.63 0.10L701.63 0.10Q698.82-0.51 697.47-1.15L697.47-1.15L696.19-1.73L696.96-9.86L700.54-9.60Z" fill="#0b1d27"></path></g></g><style>text {
  font-size: 64px;
  font-family: Arial Black;
  dominant-baseline: central;
  text-anchor: middle;
}</style></svg>