<svg width="889.0400146484375px" height="134.24000549316406px" xmlns="http://www.w3.org/2000/svg" viewBox="-194.52000732421874 7.879997253417969 889.0400146484375 134.24000549316406" style="background: rgba(0, 0, 0, 0);" preserveAspectRatio="xMidYMid"><defs><filter id="editing-extrude-glow"><feFlood flood-color="#333333" result="flood-1"></feFlood><feMorphology operator="erode" radius="1" in="SourceAlpha" result="erode"></feMorphology><feComposite operator="in" in="flood-1" in2="erode" result="comp1"></feComposite><feConvolveMatrix order="2,2" divisor="1" in="comp1" result="convolve" kernelMatrix="0 0 1 1"></feConvolveMatrix><feOffset dx="-2" dy="0" in="convolve" result="extrude"></feOffset><feComposite operator="in" in="flood-1" in2="extrude" result="comp-extrude"></feComposite><feFlood flood-color="rgba(0%,0%,0%,0)" result="flood-2"></feFlood><feComposite operator="in" in="flood-2" in2="SourceAlpha" result="comp2"></feComposite><feMorphology operator="dilate" radius="1" in="comp2" result="dilate"></feMorphology><feOffset dx="-3" dy="0" in="dilate" result="offset"></feOffset><feGaussianBlur in="offset" stdDeviation="5.8" result="blur"></feGaussianBlur><feComponentTransfer in="blur" result="shadow"><feFuncA type="linear" slope="0.8" intercept="-0.2"></feFuncA></feComponentTransfer><feMerge><feMergeNode in="shadow"></feMergeNode><feMergeNode in="comp-extrude"></feMergeNode><feMergeNode in="SourceGraphic"></feMergeNode></feMerge></filter></defs><g filter="url(#editing-extrude-glow)"><g transform="translate(-68.11294037103653, 98.5200023651123)"><path d="M64.32-45.44L64.58-42.30L60.22-41.22L60.22-41.22Q58.05-37.38 57.28-34.88L57.28-34.88L46.78 0L42.88 0L32.19-32.38L22.46 0L18.56 0L6.85-35.58L6.85-35.58Q6.14-37.89 4.74-40.26L4.74-40.26L4.29-41.02L0.06-41.66L0.38-45.12L7.36-45.12L16.77-45.44L17.02-42.30L11.97-41.02L11.97-41.02Q12.74-37.38 13.70-34.11L13.70-34.11L21.06-9.47L31.17-43.84L34.56-43.84L45.38-9.47L53.25-36.99L53.95-41.02L49.09-41.66L49.41-45.12L55.17-45.12L64.32-45.44ZM77.50-25.92L77.50-25.92L77.50-8.51L77.50-8.51Q77.50-5.31 77.89-3.20L77.89-3.20L81.92-2.88L81.60 0.26L81.60 0.26Q78.08 0 73.54 0L73.54 0L67.97 0.26L67.71-2.56L71.42-3.20L71.42-3.20Q71.87-5.25 71.87-7.04L71.87-7.04L71.87-26.24L71.87-26.24Q71.87-28.03 71.42-30.53L71.42-30.53L67.78-31.10L68.03-34.11L68.03-34.11Q72.13-33.86 73.60-33.86L73.60-33.86L81.34-34.11L81.54-30.85L77.89-30.53L77.89-30.53Q77.50-28.42 77.50-25.92ZM87.36-2.56L91.07-3.20L91.52-7.04L91.52-26.24L91.52-26.24Q91.52-27.39 91.30-28.86L91.30-28.86L91.30-28.86Q91.07-30.34 91.07-30.53L91.07-30.53L87.42-31.10L87.68-34.11L87.68-34.11Q91.78-33.86 93.18-33.86L93.18-33.86L100.99-34.11L101.18-30.85L97.47-30.53L97.47-30.53Q97.09-28.42 97.09-25.92L97.09-25.92L97.09-8.51L97.09-8.51Q97.09-5.76 97.47-3.26L97.47-3.26L102.98-3.26L102.98-3.26Q104.77-3.26 107.14-3.71L107.14-3.71L107.14-3.71Q108.35-5.50 108.86-8.64L108.86-8.64L111.87-8.38L111.10-0.70L110.14 0.19L110.14 0.19Q105.47 0 104.45 0L104.45 0L93.18 0L87.55 0.26L87.36-2.56ZM120.96-33.86L120.96-33.86L130.62-34.30L130.62-34.30Q138.94-34.30 143.46-29.63L143.46-29.63L143.46-29.63Q147.97-24.96 147.97-17.02L147.97-17.02L147.97-17.02Q147.97-9.09 143.36-4.38L143.36-4.38L143.36-4.38Q138.75 0.32 130.62 0.32L130.62 0.32L130.62 0.32Q130.62 0.32 121.54 0L121.54 0L115.90 0.26L115.71-2.56L119.42-3.20L119.42-3.20Q119.87-5.89 119.87-7.04L119.87-7.04L119.87-26.24L119.87-26.24Q119.87-27.84 119.42-30.53L119.42-30.53L115.78-31.10L116.03-34.11L116.03-34.11Q119.04-33.92 120.96-33.86ZM130.43-31.04L130.43-31.04L130.43-31.04Q127.81-31.04 125.76-30.72L125.76-30.72L125.76-30.72Q125.44-26.24 125.44-25.92L125.44-25.92L125.44-8.51L125.44-8.51Q125.44-5.06 125.76-3.14L125.76-3.14L125.76-3.14Q127.81-3.01 130.43-3.01L130.43-3.01L130.43-3.01Q136.19-3.01 139.04-6.88L139.04-6.88L139.04-6.88Q141.89-10.75 141.89-16.93L141.89-16.93L141.89-16.93Q141.89-23.10 139.01-27.07L139.01-27.07L139.01-27.07Q136.13-31.04 130.43-31.04ZM174.21-45.12L174.21-45.12L186.05-45.76L186.05-45.76Q192.77-45.76 196.54-42.30L196.54-42.30L196.54-42.30Q200.32-38.85 200.32-32.35L200.32-32.35L200.32-32.35Q200.32-25.86 195.81-22.24L195.81-22.24L195.81-22.24Q191.30-18.62 184.58-18.62L184.58-18.62L184.58-18.62Q180.67-18.62 178.88-18.69L178.88-18.69L178.88-10.69L178.88-10.69Q178.88-7.04 179.33-3.90L179.33-3.90L185.34-3.46L184.90 0.32L184.90 0.32Q180.42 0 175.30 0L175.30 0L167.74 0.32L167.42-2.88L172.48-3.90L172.48-3.90Q173.06-7.68 173.06-8.77L173.06-8.77L173.06-36.35L173.06-36.35Q173.06-37.50 172.48-41.22L172.48-41.22L167.55-41.98L167.87-45.44L167.87-45.44Q172.03-45.18 174.21-45.12ZM178.88-34.43L178.88-34.43L178.88-22.08L178.88-22.08Q182.21-21.82 183.30-21.82L183.30-21.82L183.30-21.82Q188.42-21.82 191.36-24.45L191.36-24.45L191.36-24.45Q194.30-27.07 194.30-32.13L194.30-32.13L194.30-32.13Q194.30-37.18 191.39-39.87L191.39-39.87L191.39-39.87Q188.48-42.56 183.36-42.56L183.36-42.56L183.36-42.56Q182.08-42.56 179.33-42.24L179.33-42.24L179.33-42.24Q178.88-38.34 178.88-34.43ZM229.06-3.26L232.06-2.82L231.81 0.06L231.81 0.06Q228.67 0 227.01 0L227.01 0L218.88 0.26L218.69-2.56L222.08-3.33L221.12-7.49L220.16-10.18L209.73-10.18L208.38-5.89L207.94-3.33L211.20-2.82L210.94 0.06L210.94 0.06Q208.13 0 206.34 0L206.34 0L199.55 0.26L199.36-2.56L202.18-3.20L204.29-7.68L213.44-33.86L217.22-34.37L227.39-6.78L229.06-3.26ZM219.07-13.31L214.91-25.66L210.75-13.12L219.07-13.31ZM251.46-30.66L251.46-30.66L248.45-30.66L248.45-30.66Q248.06-27.97 248.06-25.92L248.06-25.92L248.06-8.51L248.06-8.51Q248.06-5.31 248.45-3.20L248.45-3.20L252.54-2.88L252.22 0.26L252.22 0.26Q248.64 0 244.16 0L244.16 0L238.53 0.26L238.27-2.56L241.98-3.20L241.98-3.20Q242.43-5.25 242.43-7.04L242.43-7.04L242.43-26.24L242.43-26.24Q242.43-27.78 241.98-30.66L241.98-30.66L239.10-30.66L239.10-30.66Q237.25-30.66 235.07-30.40L235.07-30.40L235.07-30.40Q234.30-29.38 234.14-28.54L234.14-28.54L234.14-28.54Q233.98-27.71 233.79-25.92L233.79-25.92L230.66-26.11L230.98-33.47L231.94-34.30L231.94-34.30Q236.61-33.86 237.63-33.86L237.63-33.86L252.86-33.86L258.56-34.30L259.52-33.47L259.84-26.11L256.77-25.92L256.77-25.92Q256.77-26.05 256.58-27.30L256.58-27.30L256.58-27.30Q256.38-28.54 256.29-28.96L256.29-28.96L256.29-28.96Q256.19-29.38 255.42-30.40L255.42-30.40L255.42-30.40Q253.38-30.66 251.46-30.66ZM263.68-2.56L267.39-3.20L267.84-7.04L267.84-26.24L267.84-26.24Q267.84-27.39 267.62-28.86L267.62-28.86L267.62-28.86Q267.39-30.34 267.39-30.53L267.39-30.53L263.74-31.10L264-34.11L264-34.11Q268.10-33.86 269.50-33.86L269.50-33.86L277.31-34.11L277.50-30.85L273.79-30.53L273.79-30.53Q273.41-28.42 273.41-25.92L273.41-25.92L273.41-18.37L289.09-18.56L289.09-26.24L289.09-26.24Q289.09-27.39 288.86-28.86L288.86-28.86L288.86-28.86Q288.64-30.34 288.64-30.53L288.64-30.53L284.99-31.10L285.18-34.11L285.18-34.11Q289.28-33.86 290.75-33.86L290.75-33.86L298.50-34.11L298.75-30.85L295.04-30.53L295.04-30.53Q294.66-28.42 294.66-25.92L294.66-25.92L294.66-8.51L294.66-8.51Q294.66-5.31 295.04-3.20L295.04-3.20L299.14-2.88L298.82 0.26L298.82 0.26Q295.23 0 290.75 0L290.75 0L285.12 0.26L284.86-2.56L288.64-3.20L289.09-7.04L289.09-15.23L273.41-15.23L273.41-8.51L273.41-8.51Q273.41-7.42 273.79-3.20L273.79-3.20L277.89-2.88L277.57 0.26L277.57 0.26Q274.05 0 269.50 0L269.50 0L263.87 0.26L263.68-2.56ZM355.17-39.68L355.17-39.68L355.17-39.68Q360.58-33.28 360.58-22.53L360.58-22.53L360.58-22.53Q360.58-11.78 355.17-5.41L355.17-5.41L355.17-5.41Q349.76 0.96 339.58 0.96L339.58 0.96L339.58 0.96Q329.41 0.96 324-5.41L324-5.41L324-5.41Q318.59-11.78 318.59-22.53L318.59-22.53L318.59-22.53Q318.59-33.28 324-39.68L324-39.68L324-39.68Q329.41-46.08 339.58-46.08L339.58-46.08L339.58-46.08Q349.76-46.08 355.17-39.68ZM329.09-37.02L329.09-37.02L329.09-37.02Q325.44-31.36 325.44-22.53L325.44-22.53L325.44-22.53Q325.44-13.70 329.09-8.06L329.09-8.06L329.09-8.06Q332.74-2.43 339.58-2.43L339.58-2.43L339.58-2.43Q346.43-2.43 350.08-8.06L350.08-8.06L350.08-8.06Q353.73-13.70 353.73-22.53L353.73-22.53L353.73-22.53Q353.73-31.36 350.08-37.02L350.08-37.02L350.08-37.02Q346.43-42.69 339.58-42.69L339.58-42.69L339.58-42.69Q332.74-42.69 329.09-37.02ZM391.23-12.67L391.23-26.11L390.78-30.53L387.07-31.10L387.33-34.11L387.33-34.11Q391.10-33.86 392.51-33.86L392.51-33.86L399.74-34.11L399.94-30.85L396.22-30.53L396.22-30.53Q395.84-28.42 395.84-25.73L395.84-25.73L395.84-12.80L395.84-12.80Q395.84-6.53 392.38-2.91L392.38-2.91L392.38-2.91Q388.93 0.70 382.40 0.70L382.40 0.70L382.40 0.70Q375.87 0.70 372.45-2.91L372.45-2.91L372.45-2.91Q369.02-6.53 369.02-12.80L369.02-12.80L369.02-26.11L368.58-30.53L364.86-31.10L365.06-34.11L365.06-34.11Q369.15-33.86 370.62-33.86L370.62-33.86L378.69-34.11L378.94-30.85L375.17-30.53L375.17-30.53Q374.78-28.61 374.78-25.73L374.78-25.73L374.78-12.67L374.78-12.67Q374.78-8.45 376.90-5.86L376.90-5.86L376.90-5.86Q379.01-3.26 383.07-3.26L383.07-3.26L383.07-3.26Q387.14-3.26 389.18-5.79L389.18-5.79L389.18-5.79Q391.23-8.32 391.23-12.67L391.23-12.67ZM423.42-30.66L423.42-30.66L420.42-30.66L420.42-30.66Q420.03-27.97 420.03-25.92L420.03-25.92L420.03-8.51L420.03-8.51Q420.03-5.31 420.42-3.20L420.42-3.20L424.51-2.88L424.19 0.26L424.19 0.26Q420.61 0 416.13 0L416.13 0L410.50 0.26L410.24-2.56L413.95-3.20L413.95-3.20Q414.40-5.25 414.40-7.04L414.40-7.04L414.40-26.24L414.40-26.24Q414.40-27.78 413.95-30.66L413.95-30.66L411.07-30.66L411.07-30.66Q409.22-30.66 407.04-30.40L407.04-30.40L407.04-30.40Q406.27-29.38 406.11-28.54L406.11-28.54L406.11-28.54Q405.95-27.71 405.76-25.92L405.76-25.92L402.62-26.11L402.94-33.47L403.90-34.30L403.90-34.30Q408.58-33.86 409.60-33.86L409.60-33.86L424.83-33.86L430.53-34.30L431.49-33.47L431.81-26.11L428.74-25.92L428.74-25.92Q428.74-26.05 428.54-27.30L428.54-27.30L428.54-27.30Q428.35-28.54 428.26-28.96L428.26-28.96L428.26-28.96Q428.16-29.38 427.39-30.40L427.39-30.40L427.39-30.40Q425.34-30.66 423.42-30.66ZM451.90-30.66L445.70-30.66L445.38-25.92L445.38-18.62L445.38-18.62Q446.14-18.56 447.23-18.56L447.23-18.56L450.62-18.56L453.38-19.01L453.82-22.08L456.38-21.89L456.38-21.89Q456.32-18.82 456.32-17.86L456.32-17.86L456.45-12.29L453.82-12.03L453.38-15.10L453.38-15.10Q450.62-15.36 449.60-15.36L449.60-15.36L447.23-15.36L447.23-15.36Q446.08-15.36 445.38-15.30L445.38-15.30L445.38-8.45L445.38-8.45Q445.38-5.50 445.76-3.20L445.76-3.20L450.69-2.88L450.37 0.26L450.37 0.26Q446.02 0 441.47 0L441.47 0L435.84 0.26L435.65-2.56L439.36-3.20L439.36-3.20Q439.81-5.25 439.81-7.04L439.81-7.04L439.81-26.24L439.81-26.24Q439.81-28.29 439.36-30.53L439.36-30.53L435.71-31.10L435.97-34.11L435.97-34.11Q440.06-33.86 441.47-33.86L441.47-33.86L453.38-33.86L459.07-34.30L460.03-33.47L460.35-26.56L457.22-26.30L457.22-26.30Q457.09-27.97 456.70-28.99L456.70-28.99L456.70-28.99Q456.70-29.38 455.94-30.40L455.94-30.40L455.94-30.40Q453.76-30.66 451.90-30.66L451.90-30.66ZM474.69-25.92L474.69-25.92L474.69-8.51L474.69-8.51Q474.69-5.31 475.07-3.20L475.07-3.20L479.10-2.88L478.78 0.26L478.78 0.26Q475.26 0 470.72 0L470.72 0L465.15 0.26L464.90-2.56L468.61-3.20L468.61-3.20Q469.06-5.25 469.06-7.04L469.06-7.04L469.06-26.24L469.06-26.24Q469.06-28.03 468.61-30.53L468.61-30.53L464.96-31.10L465.22-34.11L465.22-34.11Q469.31-33.86 470.78-33.86L470.78-33.86L478.53-34.11L478.72-30.85L475.07-30.53L475.07-30.53Q474.69-28.42 474.69-25.92ZM503.68-30.66L503.68-30.66L500.67-30.66L500.67-30.66Q500.29-27.97 500.29-25.92L500.29-25.92L500.29-8.51L500.29-8.51Q500.29-5.31 500.67-3.20L500.67-3.20L504.77-2.88L504.45 0.26L504.45 0.26Q500.86 0 496.38 0L496.38 0L490.75 0.26L490.50-2.56L494.21-3.20L494.21-3.20Q494.66-5.25 494.66-7.04L494.66-7.04L494.66-26.24L494.66-26.24Q494.66-27.78 494.21-30.66L494.21-30.66L491.33-30.66L491.33-30.66Q489.47-30.66 487.30-30.40L487.30-30.40L487.30-30.40Q486.53-29.38 486.37-28.54L486.37-28.54L486.37-28.54Q486.21-27.71 486.02-25.92L486.02-25.92L482.88-26.11L483.20-33.47L484.16-34.30L484.16-34.30Q488.83-33.86 489.86-33.86L489.86-33.86L505.09-33.86L510.78-34.30L511.74-33.47L512.06-26.11L508.99-25.92L508.99-25.92Q508.99-26.05 508.80-27.30L508.80-27.30L508.80-27.30Q508.61-28.54 508.51-28.96L508.51-28.96L508.51-28.96Q508.42-29.38 507.65-30.40L507.65-30.40L507.65-30.40Q505.60-30.66 503.68-30.66ZM535.04-30.66L535.04-30.66L532.03-30.66L532.03-30.66Q531.65-27.97 531.65-25.92L531.65-25.92L531.65-8.51L531.65-8.51Q531.65-5.31 532.03-3.20L532.03-3.20L536.13-2.88L535.81 0.26L535.81 0.26Q532.22 0 527.74 0L527.74 0L522.11 0.26L521.86-2.56L525.57-3.20L525.57-3.20Q526.02-5.25 526.02-7.04L526.02-7.04L526.02-26.24L526.02-26.24Q526.02-27.78 525.57-30.66L525.57-30.66L522.69-30.66L522.69-30.66Q520.83-30.66 518.66-30.40L518.66-30.40L518.66-30.40Q517.89-29.38 517.73-28.54L517.73-28.54L517.73-28.54Q517.57-27.71 517.38-25.92L517.38-25.92L514.24-26.11L514.56-33.47L515.52-34.30L515.52-34.30Q520.19-33.86 521.22-33.86L521.22-33.86L536.45-33.86L542.14-34.30L543.10-33.47L543.42-26.11L540.35-25.92L540.35-25.92Q540.35-26.05 540.16-27.30L540.16-27.30L540.16-27.30Q539.97-28.54 539.87-28.96L539.87-28.96L539.87-28.96Q539.78-29.38 539.01-30.40L539.01-30.40L539.01-30.40Q536.96-30.66 535.04-30.66ZM563.52-30.66L557.31-30.66L556.99-25.92L556.99-19.07L556.99-19.07Q557.76-19.01 558.85-19.01L558.85-19.01L562.24-19.01L564.99-19.39L565.44-22.53L568-22.34L568-22.34Q567.94-19.26 567.94-18.30L567.94-18.30L568.06-12.74L565.44-12.42L564.99-15.55L564.99-15.55Q562.24-15.81 561.22-15.81L561.22-15.81L558.98-15.81L558.98-15.81Q557.70-15.81 556.99-15.68L556.99-15.68L556.99-8.51L556.99-8.51Q556.99-5.63 557.31-3.26L557.31-3.26L564.16-3.26L564.16-3.26Q565.95-3.26 568.32-3.71L568.32-3.71L568.32-3.71Q569.22-4.99 569.34-5.57L569.34-5.57L569.34-5.57Q569.98-8.26 570.05-8.64L570.05-8.64L573.06-8.38L572.29-0.70L571.33 0.19L571.33 0.19Q566.66 0 565.63 0L565.63 0L553.09 0L547.46 0.26L547.26-2.56L550.98-3.20L550.98-3.20Q551.42-5.25 551.42-7.04L551.42-7.04L551.42-26.24L551.42-26.24Q551.42-27.84 550.98-30.53L550.98-30.53L547.33-31.10L547.58-34.11L547.58-34.11Q551.81-33.86 553.09-33.86L553.09-33.86L564.99-33.86L570.69-34.30L571.65-33.47L571.97-26.56L568.83-26.30L568.83-26.30Q568.70-27.97 568.32-28.99L568.32-28.99L568.32-28.99Q568.32-29.38 567.49-30.46L567.49-30.46L567.49-30.46Q564.42-30.66 563.52-30.66L563.52-30.66ZM583.55-33.86L583.55-33.86L593.09-34.30L593.09-34.30Q598.34-34.30 601.34-31.71L601.34-31.71L601.34-31.71Q604.35-29.12 604.35-24.32L604.35-24.32L604.35-24.32Q604.35-21.06 602.50-18.69L602.50-18.69L602.50-18.69Q600.64-16.32 597.50-15.04L597.50-15.04L597.50-15.04Q600.90-8.58 604.99-3.20L604.99-3.20L608.19-2.88L607.87 0.26L607.87 0.26Q603.97 0 599.42 0L599.42 0L599.42 0Q597.44-4.42 596.80-5.57L596.80-5.57L592.19-14.02L591.68-14.02L591.68-14.02Q590.53-14.02 587.97-14.14L587.97-14.14L587.97-8.51L587.97-8.51Q587.97-7.42 588.35-3.20L588.35-3.20L592.45-2.88L592.13 0.26L592.13 0.26Q588.61 0 584.06 0L584.06 0L578.43 0.26L578.24-2.56L581.95-3.20L582.40-7.04L582.40-26.24L581.95-30.53L578.30-31.10L578.56-34.11L578.56-34.11Q581.63-33.92 583.55-33.86ZM590.72-31.36L590.72-31.36L590.72-31.36Q589.89-31.36 588.35-31.17L588.35-31.17L588.35-31.17Q587.97-28.48 587.97-25.92L587.97-25.92L587.97-17.09L587.97-17.09Q588.99-17.02 590.66-17.02L590.66-17.02L590.66-17.02Q594.43-17.02 596.48-18.85L596.48-18.85L596.48-18.85Q598.53-20.67 598.53-24.22L598.53-24.22L598.53-24.22Q598.53-27.78 596.51-29.57L596.51-29.57L596.51-29.57Q594.50-31.36 590.72-31.36ZM616.38-9.60L616.38-6.85L616.38-6.85Q616.38-6.08 617.02-4.16L617.02-4.16L617.02-4.16Q620.10-2.82 623.01-2.82L623.01-2.82L623.01-2.82Q625.92-2.82 627.58-4.19L627.58-4.19L627.58-4.19Q629.25-5.57 629.25-7.84L629.25-7.84L629.25-7.84Q629.25-10.11 627.52-11.68L627.52-11.68L627.52-11.68Q625.79-13.25 623.36-14.37L623.36-14.37L623.36-14.37Q620.93-15.49 618.50-16.77L618.50-16.77L618.50-16.77Q616.06-18.05 614.34-20.26L614.34-20.26L614.34-20.26Q612.61-22.46 612.61-25.41L612.61-25.41L612.61-25.41Q612.61-29.70 615.71-32.13L615.71-32.13L615.71-32.13Q618.82-34.56 623.33-34.56L623.33-34.56L623.33-34.56Q627.84-34.56 634.11-32.96L634.11-32.96L633.41-24.90L630.08-25.22L630.08-27.84L630.08-27.84Q630.08-28.10 629.44-30.14L629.44-30.14L629.44-30.14Q626.88-31.23 624.32-31.23L624.32-31.23L624.32-31.23Q621.76-31.23 620.22-29.98L620.22-29.98L620.22-29.98Q618.69-28.74 618.69-26.62L618.69-26.62L618.69-26.62Q618.69-24.51 620.42-23.01L620.42-23.01L620.42-23.01Q622.14-21.50 624.61-20.38L624.61-20.38L624.61-20.38Q627.07-19.26 629.54-17.95L629.54-17.95L629.54-17.95Q632.00-16.64 633.73-14.40L633.73-14.40L633.73-14.40Q635.46-12.16 635.46-9.15L635.46-9.15L635.46-9.15Q635.46-4.48 632.00-1.89L632.00-1.89L632.00-1.89Q628.54 0.70 623.23 0.70L623.23 0.70L623.23 0.70Q620.29 0.70 617.47 0.10L617.47 0.10L617.47 0.10Q614.66-0.51 613.31-1.15L613.31-1.15L612.03-1.73L612.80-9.86L616.38-9.60Z" fill="#000000"></path></g></g><style>text {
  font-size: 64px;
  font-family: Arial Black;
  dominant-baseline: central;
  text-anchor: middle;
}</style></svg>