<svg preserveAspectRatio="xMidYMid" style="max-height: 500px" viewBox="-99.7555981489746 46.431039282226564 701.6209111816406 60.24746818033854" xmlns="http://www.w3.org/2000/svg" width="701.6209111816406" height="60.24746818033854"><defs><filter id="editing-extrude-glow"><feFlood result="flood-1" flood-color="rgba(0%,0%,0%,0)"/><feMorphology result="erode" in="SourceAlpha" radius="1" operator="erode"/><feComposite result="comp1" in2="erode" in="flood-1" operator="in"/><feConvolveMatrix kernelMatrix="0 0 0 1 1 1 0 0 0" result="convolve" in="comp1" divisor="1" order="3,3"/><feOffset result="extrude" in="convolve" dy="0" dx="-3"/><feComposite result="comp-extrude" in2="extrude" in="flood-1" operator="in"/><feFlood result="flood-2" flood-color="rgba(0%,0%,0%,0)"/><feComposite result="comp2" in2="SourceAlpha" in="flood-2" operator="in"/><feMorphology result="dilate" in="comp2" radius="1" operator="dilate"/><feOffset result="offset" in="dilate" dy="0" dx="-4.5"/><feGaussianBlur result="blur" stdDeviation="5.8" in="offset"/><feComponentTransfer result="shadow" in="blur"><feFuncA type="linear"/></feComponentTransfer><feMerge><feMergeNode in="shadow"/><feMergeNode in="comp-extrude"/><feMergeNode in="SourceGraphic"/></feMerge></filter></defs><g filter="url(#editing-extrude-glow)"><g transform="translate(-97.90294678509235, 100.72500228881836)"><path fill="#000000" d="M70.35-49.70L70.63-46.27L65.87-45.08L65.87-45.08Q63.49-40.88 62.65-38.15L62.65-38.15L51.17 0L46.90 0L35.21-35.42L24.57 0L20.30 0L7.49-38.92L7.49-38.92Q6.72-41.44 5.18-44.03L5.18-44.03L4.69-44.87L0.07-45.57L0.42-49.35L8.05-49.35L18.34-49.70L18.62-46.27L13.09-44.87L13.09-44.87Q13.93-40.88 14.98-37.31L14.98-37.31L23.03-10.36L34.09-47.95L37.80-47.95L49.63-10.36L58.24-40.46L59.01-44.87L53.69-45.57L54.04-49.35L60.34-49.35L70.35-49.70ZM84.77-28.35L84.77-28.35L84.77-9.31L84.77-9.31Q84.77-5.81 85.19-3.50L85.19-3.50L89.60-3.15L89.25 0.28L89.25 0.28Q85.40 0 80.43 0L80.43 0L74.34 0.28L74.06-2.80L78.12-3.50L78.12-3.50Q78.61-5.74 78.61-7.70L78.61-7.70L78.61-28.70L78.61-28.70Q78.61-30.66 78.12-33.39L78.12-33.39L74.13-34.02L74.41-37.31L74.41-37.31Q78.89-37.03 80.50-37.03L80.50-37.03L88.97-37.31L89.18-33.74L85.19-33.39L85.19-33.39Q84.77-31.08 84.77-28.35ZM95.55-2.80L99.61-3.50L100.10-7.70L100.10-28.70L100.10-28.70Q100.10-29.96 99.86-31.57L99.86-31.57L99.86-31.57Q99.61-33.18 99.61-33.39L99.61-33.39L95.62-34.02L95.90-37.31L95.90-37.31Q100.38-37.03 101.92-37.03L101.92-37.03L110.46-37.31L110.67-33.74L106.61-33.39L106.61-33.39Q106.19-31.08 106.19-28.35L106.19-28.35L106.19-9.31L106.19-9.31Q106.19-6.30 106.61-3.57L106.61-3.57L112.63-3.57L112.63-3.57Q114.59-3.57 117.18-4.06L117.18-4.06L117.18-4.06Q118.51-6.02 119.07-9.45L119.07-9.45L122.36-9.17L121.52-0.77L120.47 0.21L120.47 0.21Q115.36 0 114.24 0L114.24 0L101.92 0L95.76 0.28L95.55-2.80ZM132.30-37.03L132.30-37.03L142.87-37.52L142.87-37.52Q151.97-37.52 156.91-32.41L156.91-32.41L156.91-32.41Q161.84-27.30 161.84-18.62L161.84-18.62L161.84-18.62Q161.84-9.94 156.80-4.80L156.80-4.80L156.80-4.80Q151.76 0.35 142.87 0.35L142.87 0.35L142.87 0.35Q142.87 0.35 132.93 0L132.93 0L126.77 0.28L126.56-2.80L130.62-3.50L130.62-3.50Q131.11-6.44 131.11-7.70L131.11-7.70L131.11-28.70L131.11-28.70Q131.11-30.45 130.62-33.39L130.62-33.39L126.63-34.02L126.91-37.31L126.91-37.31Q130.20-37.10 132.30-37.03ZM142.66-33.95L142.66-33.95L142.66-33.95Q139.79-33.95 137.55-33.60L137.55-33.60L137.55-33.60Q137.20-28.70 137.20-28.35L137.20-28.35L137.20-9.31L137.20-9.31Q137.20-5.53 137.55-3.43L137.55-3.43L137.55-3.43Q139.79-3.29 142.66-3.29L142.66-3.29L142.66-3.29Q148.96-3.29 152.08-7.53L152.08-7.53L152.08-7.53Q155.19-11.76 155.19-18.52L155.19-18.52L155.19-18.52Q155.19-25.27 152.04-29.61L152.04-29.61L152.04-29.61Q148.89-33.95 142.66-33.95ZM190.54-49.35L190.54-49.35L203.49-50.05L203.49-50.05Q210.84-50.05 214.97-46.27L214.97-46.27L214.97-46.27Q219.10-42.49 219.10-35.39L219.10-35.39L219.10-35.39Q219.10-28.28 214.17-24.33L214.17-24.33L214.17-24.33Q209.23-20.37 201.88-20.37L201.88-20.37L201.88-20.37Q197.61-20.37 195.65-20.44L195.65-20.44L195.65-11.69L195.65-11.69Q195.65-7.70 196.14-4.27L196.14-4.27L202.72-3.78L202.23 0.35L202.23 0.35Q197.33 0 191.73 0L191.73 0L183.47 0.35L183.12-3.15L188.65-4.27L188.65-4.27Q189.28-8.40 189.28-9.59L189.28-9.59L189.28-39.76L189.28-39.76Q189.28-41.02 188.65-45.08L188.65-45.08L183.26-45.92L183.61-49.70L183.61-49.70Q188.16-49.42 190.54-49.35ZM195.65-37.66L195.65-37.66L195.65-24.15L195.65-24.15Q199.29-23.87 200.48-23.87L200.48-23.87L200.48-23.87Q206.08-23.87 209.30-26.74L209.30-26.74L209.30-26.74Q212.52-29.61 212.52-35.14L212.52-35.14L212.52-35.14Q212.52-40.67 209.34-43.61L209.34-43.61L209.34-43.61Q206.15-46.55 200.55-46.55L200.55-46.55L200.55-46.55Q199.15-46.55 196.14-46.20L196.14-46.20L196.14-46.20Q195.65-41.93 195.65-37.66ZM250.53-3.57L253.82-3.08L253.54 0.07L253.54 0.07Q250.11 0 248.29 0L248.29 0L239.40 0.28L239.19-2.80L242.90-3.64L241.85-8.19L240.80-11.13L229.39-11.13L227.92-6.44L227.43-3.64L231.00-3.08L230.72 0.07L230.72 0.07Q227.64 0 225.68 0L225.68 0L218.26 0.28L218.05-2.80L221.13-3.50L223.44-8.40L233.45-37.03L237.58-37.59L248.71-7.42L250.53-3.57ZM239.61-14.56L235.06-28.07L230.51-14.35L239.61-14.56ZM275.03-33.53L275.03-33.53L271.74-33.53L271.74-33.53Q271.32-30.59 271.32-28.35L271.32-28.35L271.32-9.31L271.32-9.31Q271.32-5.81 271.74-3.50L271.74-3.50L276.22-3.15L275.87 0.28L275.87 0.28Q271.95 0 267.05 0L267.05 0L260.89 0.28L260.61-2.80L264.67-3.50L264.67-3.50Q265.16-5.74 265.16-7.70L265.16-7.70L265.16-28.70L265.16-28.70Q265.16-30.38 264.67-33.53L264.67-33.53L261.52-33.53L261.52-33.53Q259.49-33.53 257.11-33.25L257.11-33.25L257.11-33.25Q256.27-32.13 256.10-31.22L256.10-31.22L256.10-31.22Q255.92-30.31 255.71-28.35L255.71-28.35L252.28-28.56L252.63-36.61L253.68-37.52L253.68-37.52Q258.79-37.03 259.91-37.03L259.91-37.03L276.57-37.03L282.80-37.52L283.85-36.61L284.20-28.56L280.84-28.35L280.84-28.35Q280.84-28.49 280.63-29.86L280.63-29.86L280.63-29.86Q280.42-31.22 280.32-31.68L280.32-31.68L280.32-31.68Q280.21-32.13 279.37-33.25L279.37-33.25L279.37-33.25Q277.13-33.53 275.03-33.53ZM288.40-2.80L292.46-3.50L292.95-7.70L292.95-28.70L292.95-28.70Q292.95-29.96 292.71-31.57L292.71-31.57L292.71-31.57Q292.46-33.18 292.46-33.39L292.46-33.39L288.47-34.02L288.75-37.31L288.75-37.31Q293.23-37.03 294.77-37.03L294.77-37.03L303.31-37.31L303.52-33.74L299.46-33.39L299.46-33.39Q299.04-31.08 299.04-28.35L299.04-28.35L299.04-20.09L316.19-20.30L316.19-28.70L316.19-28.70Q316.19-29.96 315.95-31.57L315.95-31.57L315.95-31.57Q315.70-33.18 315.70-33.39L315.70-33.39L311.71-34.02L311.92-37.31L311.92-37.31Q316.40-37.03 318.01-37.03L318.01-37.03L326.48-37.31L326.76-33.74L322.70-33.39L322.70-33.39Q322.28-31.08 322.28-28.35L322.28-28.35L322.28-9.31L322.28-9.31Q322.28-5.81 322.70-3.50L322.70-3.50L327.18-3.15L326.83 0.28L326.83 0.28Q322.91 0 318.01 0L318.01 0L311.85 0.28L311.57-2.80L315.70-3.50L316.19-7.70L316.19-16.66L299.04-16.66L299.04-9.31L299.04-9.31Q299.04-8.12 299.46-3.50L299.46-3.50L303.94-3.15L303.59 0.28L303.59 0.28Q299.74 0 294.77 0L294.77 0L288.61 0.28L288.40-2.80ZM388.47-43.40L388.47-43.40L388.47-43.40Q394.38-36.40 394.38-24.64L394.38-24.64L394.38-24.64Q394.38-12.88 388.47-5.92L388.47-5.92L388.47-5.92Q382.55 1.05 371.42 1.05L371.42 1.05L371.42 1.05Q360.29 1.05 354.38-5.92L354.38-5.92L354.38-5.92Q348.46-12.88 348.46-24.64L348.46-24.64L348.46-24.64Q348.46-36.40 354.38-43.40L354.38-43.40L354.38-43.40Q360.29-50.40 371.42-50.40L371.42-50.40L371.42-50.40Q382.55-50.40 388.47-43.40ZM359.94-40.50L359.94-40.50L359.94-40.50Q355.95-34.30 355.95-24.64L355.95-24.64L355.95-24.64Q355.95-14.98 359.94-8.82L359.94-8.82L359.94-8.82Q363.93-2.66 371.42-2.66L371.42-2.66L371.42-2.66Q378.91-2.66 382.90-8.82L382.90-8.82L382.90-8.82Q386.89-14.98 386.89-24.64L386.89-24.64L386.89-24.64Q386.89-34.30 382.90-40.50L382.90-40.50L382.90-40.50Q378.91-46.69 371.42-46.69L371.42-46.69L371.42-46.69Q363.93-46.69 359.94-40.50ZM427.91-13.86L427.91-28.56L427.42-33.39L423.36-34.02L423.64-37.31L423.64-37.31Q427.77-37.03 429.31-37.03L429.31-37.03L437.22-37.31L437.43-33.74L433.37-33.39L433.37-33.39Q432.95-31.08 432.95-28.14L432.95-28.14L432.95-14.00L432.95-14.00Q432.95-7.14 429.17-3.19L429.17-3.19L429.17-3.19Q425.39 0.77 418.25 0.77L418.25 0.77L418.25 0.77Q411.11 0.77 407.37-3.19L407.37-3.19L407.37-3.19Q403.62-7.14 403.62-14.00L403.62-14.00L403.62-28.56L403.13-33.39L399.07-34.02L399.28-37.31L399.28-37.31Q403.76-37.03 405.37-37.03L405.37-37.03L414.19-37.31L414.47-33.74L410.34-33.39L410.34-33.39Q409.92-31.29 409.92-28.14L409.92-28.14L409.92-13.86L409.92-13.86Q409.92-9.24 412.23-6.41L412.23-6.41L412.23-6.41Q414.54-3.57 418.99-3.57L418.99-3.57L418.99-3.57Q423.43-3.57 425.67-6.34L425.67-6.34L425.67-6.34Q427.91-9.10 427.91-13.86L427.91-13.86ZM463.12-33.53L463.12-33.53L459.83-33.53L459.83-33.53Q459.41-30.59 459.41-28.35L459.41-28.35L459.41-9.31L459.41-9.31Q459.41-5.81 459.83-3.50L459.83-3.50L464.31-3.15L463.96 0.28L463.96 0.28Q460.04 0 455.14 0L455.14 0L448.98 0.28L448.70-2.80L452.76-3.50L452.76-3.50Q453.25-5.74 453.25-7.70L453.25-7.70L453.25-28.70L453.25-28.70Q453.25-30.38 452.76-33.53L452.76-33.53L449.61-33.53L449.61-33.53Q447.58-33.53 445.20-33.25L445.20-33.25L445.20-33.25Q444.36-32.13 444.19-31.22L444.19-31.22L444.19-31.22Q444.01-30.31 443.80-28.35L443.80-28.35L440.37-28.56L440.72-36.61L441.77-37.52L441.77-37.52Q446.88-37.03 448.00-37.03L448.00-37.03L464.66-37.03L470.89-37.52L471.94-36.61L472.29-28.56L468.93-28.35L468.93-28.35Q468.93-28.49 468.72-29.86L468.72-29.86L468.72-29.86Q468.51-31.22 468.41-31.68L468.41-31.68L468.41-31.68Q468.30-32.13 467.46-33.25L467.46-33.25L467.46-33.25Q465.22-33.53 463.12-33.53ZM494.27-33.53L487.48-33.53L487.13-28.35L487.13-20.37L487.13-20.37Q487.97-20.30 489.16-20.30L489.16-20.30L492.87-20.30L495.88-20.79L496.37-24.15L499.17-23.94L499.17-23.94Q499.10-20.58 499.10-19.53L499.10-19.53L499.24-13.44L496.37-13.16L495.88-16.52L495.88-16.52Q492.87-16.80 491.75-16.80L491.75-16.80L489.16-16.80L489.16-16.80Q487.90-16.80 487.13-16.73L487.13-16.73L487.13-9.24L487.13-9.24Q487.13-6.02 487.55-3.50L487.55-3.50L492.94-3.15L492.59 0.28L492.59 0.28Q487.83 0 482.86 0L482.86 0L476.70 0.28L476.49-2.80L480.55-3.50L480.55-3.50Q481.04-5.74 481.04-7.70L481.04-7.70L481.04-28.70L481.04-28.70Q481.04-30.94 480.55-33.39L480.55-33.39L476.56-34.02L476.84-37.31L476.84-37.31Q481.32-37.03 482.86-37.03L482.86-37.03L495.88-37.03L502.11-37.52L503.16-36.61L503.51-29.05L500.08-28.77L500.08-28.77Q499.94-30.59 499.52-31.71L499.52-31.71L499.52-31.71Q499.52-32.13 498.68-33.25L498.68-33.25L498.68-33.25Q496.30-33.53 494.27-33.53L494.27-33.53ZM519.19-28.35L519.19-28.35L519.19-9.31L519.19-9.31Q519.19-5.81 519.61-3.50L519.61-3.50L524.02-3.15L523.67 0.28L523.67 0.28Q519.82 0 514.85 0L514.85 0L508.76 0.28L508.48-2.80L512.54-3.50L512.54-3.50Q513.03-5.74 513.03-7.70L513.03-7.70L513.03-28.70L513.03-28.70Q513.03-30.66 512.54-33.39L512.54-33.39L508.55-34.02L508.83-37.31L508.83-37.31Q513.31-37.03 514.92-37.03L514.92-37.03L523.39-37.31L523.60-33.74L519.61-33.39L519.61-33.39Q519.19-31.08 519.19-28.35ZM550.90-33.53L550.90-33.53L547.61-33.53L547.61-33.53Q547.19-30.59 547.19-28.35L547.19-28.35L547.19-9.31L547.19-9.31Q547.19-5.81 547.61-3.50L547.61-3.50L552.09-3.15L551.74 0.28L551.74 0.28Q547.82 0 542.92 0L542.92 0L536.76 0.28L536.48-2.80L540.54-3.50L540.54-3.50Q541.03-5.74 541.03-7.70L541.03-7.70L541.03-28.70L541.03-28.70Q541.03-30.38 540.54-33.53L540.54-33.53L537.39-33.53L537.39-33.53Q535.36-33.53 532.98-33.25L532.98-33.25L532.98-33.25Q532.14-32.13 531.97-31.22L531.97-31.22L531.97-31.22Q531.79-30.31 531.58-28.35L531.58-28.35L528.15-28.56L528.50-36.61L529.55-37.52L529.55-37.52Q534.66-37.03 535.78-37.03L535.78-37.03L552.44-37.03L558.67-37.52L559.72-36.61L560.07-28.56L556.71-28.35L556.71-28.35Q556.71-28.49 556.50-29.86L556.50-29.86L556.50-29.86Q556.29-31.22 556.19-31.68L556.19-31.68L556.19-31.68Q556.08-32.13 555.24-33.25L555.24-33.25L555.24-33.25Q553-33.53 550.90-33.53ZM585.20-33.53L585.20-33.53L581.91-33.53L581.91-33.53Q581.49-30.59 581.49-28.35L581.49-28.35L581.49-9.31L581.49-9.31Q581.49-5.81 581.91-3.50L581.91-3.50L586.39-3.15L586.04 0.28L586.04 0.28Q582.12 0 577.22 0L577.22 0L571.06 0.28L570.78-2.80L574.84-3.50L574.84-3.50Q575.33-5.74 575.33-7.70L575.33-7.70L575.33-28.70L575.33-28.70Q575.33-30.38 574.84-33.53L574.84-33.53L571.69-33.53L571.69-33.53Q569.66-33.53 567.28-33.25L567.28-33.25L567.28-33.25Q566.44-32.13 566.26-31.22L566.26-31.22L566.26-31.22Q566.09-30.31 565.88-28.35L565.88-28.35L562.45-28.56L562.80-36.61L563.85-37.52L563.85-37.52Q568.96-37.03 570.08-37.03L570.08-37.03L586.74-37.03L592.97-37.52L594.02-36.61L594.37-28.56L591.01-28.35L591.01-28.35Q591.01-28.49 590.80-29.86L590.80-29.86L590.80-29.86Q590.59-31.22 590.49-31.68L590.49-31.68L590.49-31.68Q590.38-32.13 589.54-33.25L589.54-33.25L589.54-33.25Q587.30-33.53 585.20-33.53ZM616.35-33.53L609.56-33.53L609.21-28.35L609.21-20.86L609.21-20.86Q610.05-20.79 611.24-20.79L611.24-20.79L614.95-20.79L617.96-21.21L618.45-24.64L621.25-24.43L621.25-24.43Q621.18-21.07 621.18-20.02L621.18-20.02L621.32-13.93L618.45-13.58L617.96-17.01L617.96-17.01Q614.95-17.29 613.83-17.29L613.83-17.29L611.38-17.29L611.38-17.29Q609.98-17.29 609.21-17.15L609.21-17.15L609.21-9.31L609.21-9.31Q609.21-6.16 609.56-3.57L609.56-3.57L617.05-3.57L617.05-3.57Q619.01-3.57 621.60-4.06L621.60-4.06L621.60-4.06Q622.58-5.46 622.72-6.09L622.72-6.09L622.72-6.09Q623.42-9.03 623.49-9.45L623.49-9.45L626.78-9.17L625.94-0.77L624.89 0.21L624.89 0.21Q619.78 0 618.66 0L618.66 0L604.94 0L598.78 0.28L598.57-2.80L602.63-3.50L602.63-3.50Q603.12-5.74 603.12-7.70L603.12-7.70L603.12-28.70L603.12-28.70Q603.12-30.45 602.63-33.39L602.63-33.39L598.64-34.02L598.92-37.31L598.92-37.31Q603.54-37.03 604.94-37.03L604.94-37.03L617.96-37.03L624.19-37.52L625.24-36.61L625.59-29.05L622.16-28.77L622.16-28.77Q622.02-30.59 621.60-31.71L621.60-31.71L621.60-31.71Q621.60-32.13 620.69-33.32L620.69-33.32L620.69-33.32Q617.33-33.53 616.35-33.53L616.35-33.53ZM638.26-37.03L638.26-37.03L648.69-37.52L648.69-37.52Q654.43-37.52 657.72-34.69L657.72-34.69L657.72-34.69Q661.01-31.85 661.01-26.60L661.01-26.60L661.01-26.60Q661.01-23.03 658.98-20.44L658.98-20.44L658.98-20.44Q656.95-17.85 653.52-16.45L653.52-16.45L653.52-16.45Q657.23-9.38 661.71-3.50L661.71-3.50L665.21-3.15L664.86 0.28L664.86 0.28Q660.59 0 655.62 0L655.62 0L655.62 0Q653.45-4.83 652.75-6.09L652.75-6.09L647.71-15.33L647.15-15.33L647.15-15.33Q645.89-15.33 643.09-15.47L643.09-15.47L643.09-9.31L643.09-9.31Q643.09-8.12 643.51-3.50L643.51-3.50L647.99-3.15L647.64 0.28L647.64 0.28Q643.79 0 638.82 0L638.82 0L632.66 0.28L632.45-2.80L636.51-3.50L637.00-7.70L637.00-28.70L636.51-33.39L632.52-34.02L632.80-37.31L632.80-37.31Q636.16-37.10 638.26-37.03ZM646.10-34.30L646.10-34.30L646.10-34.30Q645.19-34.30 643.51-34.09L643.51-34.09L643.51-34.09Q643.09-31.15 643.09-28.35L643.09-28.35L643.09-18.69L643.09-18.69Q644.21-18.62 646.03-18.62L646.03-18.62L646.03-18.62Q650.16-18.62 652.40-20.62L652.40-20.62L652.40-20.62Q654.64-22.61 654.64-26.50L654.64-26.50L654.64-26.50Q654.64-30.38 652.43-32.34L652.43-32.34L652.43-32.34Q650.23-34.30 646.10-34.30ZM674.17-10.50L674.17-7.49L674.17-7.49Q674.17-6.65 674.87-4.55L674.87-4.55L674.87-4.55Q678.23-3.08 681.41-3.08L681.41-3.08L681.41-3.08Q684.60-3.08 686.42-4.59L686.42-4.59L686.42-4.59Q688.24-6.09 688.24-8.58L688.24-8.58L688.24-8.58Q688.24-11.06 686.35-12.78L686.35-12.78L686.35-12.78Q684.46-14.49 681.80-15.72L681.80-15.72L681.80-15.72Q679.14-16.94 676.48-18.34L676.48-18.34L676.48-18.34Q673.82-19.74 671.93-22.16L671.93-22.16L671.93-22.16Q670.04-24.57 670.04-27.79L670.04-27.79L670.04-27.79Q670.04-32.48 673.43-35.14L673.43-35.14L673.43-35.14Q676.83-37.80 681.76-37.80L681.76-37.80L681.76-37.80Q686.70-37.80 693.56-36.05L693.56-36.05L692.79-27.23L689.15-27.58L689.15-30.45L689.15-30.45Q689.15-30.73 688.45-32.97L688.45-32.97L688.45-32.97Q685.65-34.16 682.85-34.16L682.85-34.16L682.85-34.16Q680.05-34.16 678.37-32.80L678.37-32.80L678.37-32.80Q676.69-31.43 676.69-29.12L676.69-29.12L676.69-29.12Q676.69-26.81 678.58-25.17L678.58-25.17L678.58-25.17Q680.47-23.52 683.16-22.30L683.16-22.30L683.16-22.30Q685.86-21.07 688.55-19.64L688.55-19.64L688.55-19.64Q691.25-18.20 693.14-15.75L693.14-15.75L693.14-15.75Q695.03-13.30 695.03-10.01L695.03-10.01L695.03-10.01Q695.03-4.90 691.25-2.07L691.25-2.07L691.25-2.07Q687.47 0.77 681.66 0.77L681.66 0.77L681.66 0.77Q678.44 0.77 675.36 0.11L675.36 0.11L675.36 0.11Q672.28-0.56 670.81-1.26L670.81-1.26L669.41-1.89L670.25-10.78L674.17-10.50Z"/></g></g><style>text {
  font-size: 64px;
  font-family: Arial Black;
  dominant-baseline: central;
  text-anchor: middle;
}</style></svg>