<?xml version="1.0" encoding="iso-8859-1"?>
<!-- Uploaded to: SVG Repo, www.svgrepo.com, Generator: SVG Repo Mixer Tools -->
<!DOCTYPE svg PUBLIC "-//W3C//DTD SVG 1.1//EN" "http://www.w3.org/Graphics/SVG/1.1/DTD/svg11.dtd">
<svg fill="#000000" height="800px" width="800px" version="1.1" id="Capa_1" xmlns="http://www.w3.org/2000/svg" xmlns:xlink="http://www.w3.org/1999/xlink" 
	 viewBox="0 0 437.79 437.79" xml:space="preserve">
<g>
	<path d="M334.667,161.244c1.095,2.727,3.844,4.561,6.765,4.627c3.178,0.071,6.152-1.979,7.219-4.969
		c1.089-3.053,0.043-6.551-2.538-8.506c-2.415-1.829-5.779-1.994-8.377-0.449C334.596,153.813,333.247,157.868,334.667,161.244
		C334.848,161.693,334.478,160.793,334.667,161.244z"/>
	<path d="M363.302,181.197c-1.648-3.8-6.066-5.544-9.865-3.896c-3.8,1.648-5.545,6.065-3.896,9.865
		c11.238,25.912,14.502,54.357,9.438,82.263c-5.181,28.548-18.807,54.525-39.404,75.123c-55.515,55.514-145.843,55.513-201.357,0
		c-55.514-55.515-55.514-145.843,0-201.357c26.474-26.474,61.667-41.281,99.097-41.694c0.538-0.006,1.072-0.009,1.61-0.009
		c36.776,0,71.601,13.929,98.213,39.322c2.998,2.859,7.743,2.747,10.604-0.249c2.859-2.997,2.748-7.745-0.248-10.604
		c-29.85-28.481-69.005-43.902-110.344-43.46c-41.375,0.457-80.276,16.824-109.538,46.086c-61.363,61.363-61.363,161.208,0,222.57
		c30.682,30.681,70.983,46.022,111.285,46.022s80.604-15.341,111.286-46.022c22.766-22.767,37.827-51.485,43.556-83.051
		C379.333,241.274,375.724,209.838,363.302,181.197z"/>
	<path d="M245.036,51.727c3.98-5.391,6.338-12.048,6.338-19.248C251.375,14.57,236.804,0,218.895,0
		c-17.909,0-32.479,14.57-32.479,32.479c0,7.2,2.358,13.857,6.338,19.248C98.147,64.533,24.979,145.814,24.979,243.874
		c0,106.925,86.99,193.916,193.915,193.916s193.916-86.99,193.916-193.916C412.81,145.814,339.642,64.533,245.036,51.727z
		 M201.415,32.479c0-9.638,7.841-17.479,17.479-17.479s17.48,7.841,17.48,17.479s-7.842,17.479-17.48,17.479
		S201.415,42.118,201.415,32.479z M218.895,422.79c-98.654,0-178.915-80.261-178.915-178.916S120.24,64.959,218.895,64.959
		c98.655,0,178.916,80.261,178.916,178.915S317.549,422.79,218.895,422.79z"/>
	<path d="M354.94,243.874c0-3.399-2.286-6.374-5.571-7.248l-74.18-19.744l26.264-45.318c1.704-2.941,1.218-6.661-1.187-9.064
		c-2.403-2.403-6.121-2.891-9.064-1.185l-45.314,26.27L226.142,113.4c-0.874-3.285-3.849-5.571-7.248-5.571
		c-3.399,0-6.374,2.286-7.248,5.571l-19.746,74.186l-45.316-26.271c-2.94-1.706-6.66-1.219-9.065,1.185
		c-2.404,2.404-2.89,6.124-1.185,9.065l26.271,45.316L88.42,236.626c-3.285,0.874-5.571,3.848-5.571,7.248s2.286,6.374,5.571,7.248
		l74.186,19.745l-26.271,45.315c-1.705,2.941-1.219,6.661,1.185,9.064c1.445,1.445,3.365,2.197,5.306,2.197
		c1.288,0,2.585-0.331,3.758-1.011l45.318-26.264l19.744,74.181c0.874,3.285,3.848,5.571,7.248,5.571
		c3.399,0,6.374-2.286,7.248-5.571l19.744-74.18l45.316,26.263c1.173,0.68,2.471,1.011,3.758,1.011c1.941,0,3.861-0.752,5.307-2.197
		c2.403-2.403,2.89-6.123,1.186-9.064l-26.263-45.317l74.179-19.744C352.654,250.248,354.94,247.273,354.94,243.874z
		 M274.342,188.427l-14.174,24.457l-8.122-2.162l-2.161-8.117L274.342,188.427z M163.452,188.431l24.451,14.175l-2.16,8.116
		l-8.116,2.16L163.452,188.431z M163.448,299.322l14.179-24.457l8.117,2.16l2.162,8.123L163.448,299.322z M274.346,299.326
		l-24.462-14.177l2.162-8.124l8.123-2.162L274.346,299.326z M243.988,263.648c-2.599,0.691-4.628,2.721-5.319,5.318l-19.774,74.293
		l-19.774-74.293c-0.691-2.598-2.721-4.627-5.318-5.318l-74.293-19.774l74.293-19.774c2.598-0.691,4.627-2.721,5.318-5.318
		l19.774-74.293l19.774,74.293c0.691,2.598,2.721,4.627,5.319,5.318l74.293,19.774L243.988,263.648z"/>
</g>
</svg>